<svg xmlns="http://www.w3.org/2000/svg" viewBox="0 0 361.01 367.22">
  <defs>
    <style>
      .cls-1 {
        isolation: isolate;
      }

      .cls-2 {
        fill: #4c5054;
      }

      .cls-3 {
        fill: #bc7f59;
      }

      .cls-13, .cls-18, .cls-21, .cls-3, .cls-5 {
        opacity: 0.5;
      }

      .cls-11, .cls-13, .cls-18, .cls-21, .cls-3, .cls-5, .cls-7 {
        mix-blend-mode: multiply;
      }

      .cls-4, .cls-5 {
        fill: #b3b3b3;
      }

      .cls-6 {
        fill: #fff;
      }

      .cls-7, .cls-9 {
        fill: #ccc;
      }

      .cls-8 {
        fill: #666;
      }

      .cls-10 {
        fill: #999;
      }

      .cls-11 {
        fill: #a7c3d1;
      }

      .cls-12 {
        fill: #7b8f96;
      }

      .cls-13 {
        fill: #153246;
      }

      .cls-14 {
        fill: #979899;
      }

      .cls-15 {
        fill: #b9babc;
      }

      .cls-16 {
        fill: #f68f1f;
      }

      .cls-17 {
        fill: #fab29a;
      }

      .cls-18 {
        fill: #cc8a79;
      }

      .cls-19 {
        fill: none;
        stroke: #d9d9db;
        stroke-linecap: round;
        stroke-miterlimit: 10;
      }

      .cls-20 {
        fill: #a1cf6c;
      }

      .cls-21 {
        fill: #086a7d;
      }

      .cls-22 {
        fill: #a4cf71;
      }

      .cls-23 {
        fill: #e5801a;
      }

      .cls-24 {
        fill: #3f1908;
      }

      .cls-25 {
        fill: #8d5b46;
      }

      .cls-26 {
        fill: #5c3a2a;
      }

      .cls-27 {
        fill: #754b39;
      }

      .cls-28 {
        fill: #4f291d;
      }

      .cls-29 {
        fill: #ad7a5a;
      }

      .cls-30 {
        fill: #d89b87;
      }

      .cls-31 {
        fill: #280600;
      }

      .cls-32 {
        fill: #94abb3;
      }

      .cls-33 {
        fill: #bad0d8;
      }

      .cls-34 {
        fill: #5c96c2;
      }

      .cls-35 {
        fill: #e29386;
      }

      .cls-36 {
        fill: #b55166;
      }

      .cls-37 {
        fill: #f38599;
      }
    </style>
  </defs>
  <title>child</title>
  <g class="cls-1">
    <g id="OBJECTS">
      <g>
        <g>
          <path class="cls-2" d="M249.21,18.76V345.52a8.6,8.6,0,0,1-8.6,8.59H14a8.6,8.6,0,0,1-8.61-8.59V18.76A8.6,8.6,0,0,1,14,10.17H240.61a8.61,8.61,0,0,1,8.6,8.59Z" transform="translate(-5.42 -5.37)"/>
          <path class="cls-3" d="M249.21,18.76V345.52a8.6,8.6,0,0,1-8.6,8.59H14a8.59,8.59,0,0,1-5.95-2.38l238-339.61A8.56,8.56,0,0,1,249.21,18.76Z" transform="translate(-5.42 -5.37)"/>
          <rect class="cls-3" x="20.38" y="28.65" width="213.21" height="304.39"/>
          <rect class="cls-4" x="55.9" y="15.39" width="131.99" height="30.47"/>
          <polygon class="cls-5" points="187.89 15.39 187.89 22.7 55.9 19.3 55.9 15.39 187.89 15.39"/>
          <rect class="cls-6" x="15.29" y="24.2" width="213.21" height="304.38"/>
          <path class="cls-7" d="M200.11,29.57V44.88A3.12,3.12,0,0,1,197,48H164.32A3.4,3.4,0,0,0,161,45.44H96.6A3.4,3.4,0,0,0,93.31,48H60.63a3.12,3.12,0,0,1-3.11-3.11V29.57H53.83V44.88a6.81,6.81,0,0,0,6.8,6.8h32.6a3.4,3.4,0,0,0,3.37,3H161a3.4,3.4,0,0,0,3.36-3H197a6.81,6.81,0,0,0,6.8-6.8V29.57Z" transform="translate(-5.42 -5.37)"/>
          <g>
            <path class="cls-2" d="M115.18,88.88a9.78,9.78,0,0,1-4,.72c-4.29,0-7.52-2.7-7.52-7.66a7.55,7.55,0,0,1,8-8,8.14,8.14,0,0,1,3.61.67l-.47,1.6a7.17,7.17,0,0,0-3.07-.63c-3.57,0-5.94,2.27-5.94,6.24,0,3.71,2.15,6.09,5.85,6.09a7.93,7.93,0,0,0,3.21-.63Z" transform="translate(-5.42 -5.37)"/>
            <path class="cls-2" d="M117.57,73.43h2v6.78h0A3.59,3.59,0,0,1,121,78.82a4.09,4.09,0,0,1,2-.56c1.47,0,3.82.89,3.82,4.65v6.46h-2V83.13c0-1.75-.65-3.23-2.53-3.23a2.83,2.83,0,0,0-2.66,2,2.27,2.27,0,0,0-.14.95v6.55h-2Z" transform="translate(-5.42 -5.37)"/>
            <path class="cls-2" d="M132.32,75.45a1.23,1.23,0,0,1-2.46,0,1.21,1.21,0,0,1,1.24-1.24A1.18,1.18,0,0,1,132.32,75.45Zm-2.21,13.92V78.5h2V89.37Z" transform="translate(-5.42 -5.37)"/>
            <path class="cls-2" d="M135.39,73.43h2V89.37h-2Z" transform="translate(-5.42 -5.37)"/>
            <path class="cls-2" d="M150.16,73.43V86.57c0,1,0,2.06.09,2.8h-1.79l-.09-1.88h0a4,4,0,0,1-3.73,2.13c-2.64,0-4.67-2.22-4.67-5.52,0-3.62,2.23-5.84,4.9-5.84a3.63,3.63,0,0,1,3.29,1.66h0V73.43Zm-2,9.5a3.3,3.3,0,0,0-.09-.83,2.92,2.92,0,0,0-2.87-2.29c-2.05,0-3.27,1.79-3.27,4.2,0,2.2,1.08,4,3.23,4a3,3,0,0,0,2.91-2.36,3.31,3.31,0,0,0,.09-.85Z" transform="translate(-5.42 -5.37)"/>
          </g>
          <path class="cls-4" d="M166.45,13.68a7.09,7.09,0,0,1-.58,2.77H88.76a7.09,7.09,0,0,1-.58-2.77,6.83,6.83,0,0,1,.34-2.16c1.12-3.53,4.92-6.15,9.4-6.15h58.79c4.48,0,8.29,2.62,9.41,6.15A7.11,7.11,0,0,1,166.45,13.68Z" transform="translate(-5.42 -5.37)"/>
          <path class="cls-5" d="M166.45,13.68a7.09,7.09,0,0,1-.58,2.77H88.76a7.09,7.09,0,0,1-.58-2.77,6.83,6.83,0,0,1,.34-2.16h77.6A7.11,7.11,0,0,1,166.45,13.68Z" transform="translate(-5.42 -5.37)"/>
          <path class="cls-8" d="M195.5,49.68H59.13a6.81,6.81,0,0,1-6.8-6.8V24.28a6.81,6.81,0,0,1,6.8-6.81H195.5a6.81,6.81,0,0,1,6.8,6.81v18.6A6.81,6.81,0,0,1,195.5,49.68ZM59.13,21.16A3.12,3.12,0,0,0,56,24.28v18.6A3.12,3.12,0,0,0,59.13,46H195.5a3.11,3.11,0,0,0,3.11-3.11V24.28a3.12,3.12,0,0,0-3.11-3.12Z" transform="translate(-5.42 -5.37)"/>
          <path class="cls-9" d="M56.89,8.92h130a4.24,4.24,0,0,1,4.24,4.24v1.9a3.71,3.71,0,0,1-3.71,3.71H56.36a3.71,3.71,0,0,1-3.71-3.71v-1.9a4.24,4.24,0,0,1,4.24-4.24Z"/>
          <path class="cls-8" d="M137,21.27H117.66a2.06,2.06,0,0,1-2-2.06h0a2.06,2.06,0,0,1,2-2.05H137A2.06,2.06,0,0,1,139,19.21h0A2.06,2.06,0,0,1,137,21.27Z" transform="translate(-5.42 -5.37)"/>
          <rect class="cls-10" x="86.27" y="38.07" width="71.25" height="9.25" rx="3.4"/>
          <g>
            <rect class="cls-9" x="29.39" y="127.82" width="185" height="1.92"/>
            <rect class="cls-9" x="29.39" y="150.34" width="185" height="1.92"/>
            <rect class="cls-9" x="29.39" y="172.85" width="185" height="1.92"/>
            <rect class="cls-9" x="29.39" y="195.36" width="185" height="1.92"/>
            <rect class="cls-9" x="29.39" y="217.87" width="185" height="1.92"/>
            <rect class="cls-9" x="29.39" y="240.38" width="185" height="1.92"/>
            <rect class="cls-9" x="29.39" y="262.9" width="185" height="1.92"/>
            <rect class="cls-9" x="29.39" y="285.41" width="185" height="1.92"/>
          </g>
        </g>
        <path class="cls-11" d="M249.21,110.17v31.11c-3.93-4.31-8.27-9.55-12.36-14.69-8.51-10.69-15.88-20.87-15.91-20.9a17.16,17.16,0,0,1,2.86-3.35l-.27-.33-1.64-.7c-.1,0-.16,0-.17,0a28.33,28.33,0,0,0-5.26-.46c-2.42.1-8.08.25-9.55-.23-1.09-.37-8.82-5.63-13.66-8.73-1.9-.77-4-1.57-5.14-1.93a1.61,1.61,0,0,0-.29-.09c-2.14-.58-2.66-2.8-1.38-3.7a2.07,2.07,0,0,1,.64-.29,4.2,4.2,0,0,1,1.08-.08,2.27,2.27,0,0,1,1.67-.69c1.76-.11,7.87,1.72,10.08,2.41a2.07,2.07,0,0,1,2-1.55c2.71-.2,5.7,1.18,8.14,2.43a8,8,0,0,0,3.17-.15c1.5-.46,6.8-2.57,10.48,0,3.3,2.27,6.9,4.31,8.24,6.28l2.81,3a22,22,0,0,1,4.88.15h0C240.49,98.79,244.9,104.55,249.21,110.17Z" transform="translate(-5.42 -5.37)"/>
        <g>
          <path class="cls-12" d="M226,103.43l-5-2.36s5.75-9.84,18.72-8L241.35,98Z" transform="translate(-5.42 -5.37)"/>
          <path class="cls-2" d="M334.64,327.93c1.27,6.94,3.31,18.08,3.32,18.29s-.31,5.16-.48,7.82l-4-3.9-17.53.75-2.39,4.38-.23.52-.51-8.11s.78-6.82,1.46-13.19l1.67-79,.05-2.29,1.28-59.35H300.5l1.27,59.35v.65l1.71,80.64c.69,6.37,1.47,13.19,1.47,13.19l-.52,8.11-.23-.52-2.39-4.38-17.52-.75-4,3.9c-.17-2.66-.49-7.59-.48-7.82s2.05-11.35,3.31-18.29l-1-72.93-.05-3.44-.81-61.68-.11-8.27a17,17,0,0,1-.59-2.39,105.85,105.85,0,0,1-.92-15.43c0-2.42,0-4.08,0-4.08h58.34s0,1.66,0,4.08c0,4.35-.14,11.16-.92,15.43a15.73,15.73,0,0,1-.59,2.39l-.11,8.27L335.61,255l0,2.77Z" transform="translate(-5.42 -5.37)"/>
          <path class="cls-13" d="M338.08,163.79c0,4.35-.14,11.16-.92,15.43a15.73,15.73,0,0,1-.59,2.39l-.11,8.27L335.61,255l0,2.77L316,255.49l.05-2.29,1.28-59.35H300.5l1.27,59.35v.65l-19.66-2.29-.81-61.68-.11-8.27a17,17,0,0,1-.59-2.39,105.85,105.85,0,0,1-.92-15.43c0-2.42,0-4.08,0-4.08h58.34S338.08,161.37,338.08,163.79Z" transform="translate(-5.42 -5.37)"/>
          <rect class="cls-14" x="287.27" y="171.79" width="32.29" height="68.72"/>
          <path class="cls-15" d="M325,177.15v19.54c-9.23,4.51-22.94,8-32.3,10.12V177.15Z" transform="translate(-5.42 -5.37)"/>
          <path class="cls-6" d="M363.43,141.18l-16.58-2.56c-.28-3.23-.49-5.45-.58-6.13a10.89,10.89,0,0,0-.27-1.11c-.53-1.75-1.71-5-3-8.3-2-5.2-4.22-10.57-4.52-10.57-7.73,1-7.37-27.84-7.37-27.84L336,80.12s10,1,11.35,3.63c0,0,16.2,34.83,18.74,50.87C367.11,141.07,365.28,141,363.43,141.18Z" transform="translate(-5.42 -5.37)"/>
          <path class="cls-6" d="M279.45,115.12l-.85-.06c-.37,1.23-.88,2.92-1.52,4.85-.85,2.57-1.92,5.6-3.14,8.68-3.87,9.65-9.27,19.74-14.39,17.38-9.11-4.2-38.61-44.9-38.61-44.9,7-.2,18.72-8,18.72-8l16.06,21,2.46,3.23,1.13-3.6,9.06-28.78c1.11-2.78,11-4.64,11-4.64l5.27,4.09S287.26,115.39,279.45,115.12Z" transform="translate(-5.42 -5.37)"/>
          <path class="cls-11" d="M277.08,119.91c-.85,2.57-1.92,5.6-3.14,8.68-2.44-1.6-9.07-5.79-14.12-7.51-4.4-1.5-4.46-5-4.1-7l2.46,3.23,1.13-3.6,1.12,1.85,8.62,2.77Z" transform="translate(-5.42 -5.37)"/>
          <path class="cls-16" d="M340,106.07a86.84,86.84,0,0,0,1.49-10,83.71,83.71,0,0,0,0-14.57A24.59,24.59,0,0,1,333.49,79c-4.76-2.26-11-6.58-16.8-6.92H301c-5.82.34-12,4.66-16.8,6.92a24.59,24.59,0,0,1-8.06,2.49,83.71,83.71,0,0,0,0,14.57,89.1,89.1,0,0,0,1.49,10c.21,3.19.47,7.47.65,11.71s.3,8.42.22,11.43c-.13,4.46-.43,14.13-.71,22.68s-.52,16-.52,16,3.94.35,9.34.71,12.24.75,18.06.81H313c5.82-.06,12.67-.44,18.07-.81s9.33-.71,9.33-.71-.25-7.43-.52-16-.58-18.22-.7-22.68c-.09-3,0-7.2.21-11.43S339.83,109.26,340,106.07Z" transform="translate(-5.42 -5.37)"/>
          <path class="cls-17" d="M314.88,60.59V78a9.52,9.52,0,0,1-.12,1.31H303A8.2,8.2,0,0,1,302.8,78V60.59Z" transform="translate(-5.42 -5.37)"/>
          <path class="cls-18" d="M314.88,60.59V70.93a44.06,44.06,0,0,1-12.08-3V60.59Z" transform="translate(-5.42 -5.37)"/>
          <line class="cls-19" x1="336.63" y1="168.41" x2="323.87" y2="168.41"/>
          <polygon class="cls-20" points="310.7 159.44 307.83 166.18 303.42 176.11 299.01 166.18 296.14 159.44 300.47 83.57 300.66 80.23 301.06 78.95 305.78 78.95 306.18 80.23 306.33 82.72 310.7 159.44"/>
          <path class="cls-21" d="M311.75,88.09a22.59,22.59,0,0,1-5.86.84l.19-3.34.4-1.28h4.72l.4,1.28Z" transform="translate(-5.42 -5.37)"/>
          <path class="cls-22" d="M309.93,77c0,.12-.57,0-.94,0v-.06l-.15,0-.15,0V77c-.37.07-.94.16-.94,0l-4.21,4.39L305.93,87h5.82l2.39-5.53Z" transform="translate(-5.42 -5.37)"/>
          <path class="cls-23" d="M320.63,72.38,315,70l-6.14,6.88L302.71,70l-5.65,2.42,5.35,11.24c1.21-2.43,6-5.9,6.43-6.6.48.7,5.34,4.29,6.55,6.72Z" transform="translate(-5.42 -5.37)"/>
          <path class="cls-6" d="M345.53,247.87h-32.2a17.77,17.77,0,0,1-3.87-7.47c-.13-.57-.24-1.15-.32-1.76h-.61c-.08.59-.17,1.17-.3,1.71a17.71,17.71,0,0,1-3.87,7.52H272.15s-.28-69.8,4.73-87.61c0,0-.71-14-1.34-30.31-.14-3.41-.26-6.91-.37-10.42-.6-17.78-.91-35.29,0-38.34,0,0,2.54-1.2,6.06-2.64.63-.26,1.29-.53,2-.79,1.66-.66,3.47-1.33,5.27-1.93,1.22-.63,2.54-1.3,3.72-1.86.55-.27,1.08-.52,1.55-.73s1-.44,1.38-.58a11.46,11.46,0,0,1,2.4-.5c-.28,1-.94,2.85-1.69,5.43A77,77,0,0,0,293,92.36c-.52,5.74,3.13,15.84,6.89,24.51,1,2.21,2,4.34,3.07,6.28,2.19,4.07,4.31,7.3,5.3,8.76l.27.39.34.47s.23-.32.62-.9c.69-1,1.89-2.83,3.28-5.17a92.37,92.37,0,0,0,5.08-9.83c3.77-8.67,7.41-18.77,6.9-24.51a79.3,79.3,0,0,0-2.9-14.77c-.75-2.58-1.4-4.46-1.7-5.43a11.41,11.41,0,0,1,2.42.5c1.4.52,4.22,1.92,6.64,3.17,1.8.6,3.6,1.27,5.27,1.93.67.26,1.33.53,1.95.79,3.52,1.44,6.07,2.64,6.07,2.64,1.26,4,.32,33.66-.59,55.46-.21,5.12-.42,9.81-.6,13.63-.28,6.08-.48,10-.48,10C345.82,178.07,345.53,247.87,345.53,247.87Z" transform="translate(-5.42 -5.37)"/>
          <path class="cls-11" d="M314.6,127.38s-2.32,8-8.15,6.16a54.78,54.78,0,0,0-22.22-2.39c-5.36.65-7.71-.41-8.69-1.2-.14-3.41-.26-6.91-.37-10.42l4.65.93,17.4.62,5.71,2.07,9.81,3.55Z" transform="translate(-5.42 -5.37)"/>
          <g>
            <path class="cls-11" d="M308.41,132.3c-14.89-5.88-24.78-21.07-24.78-21.07l6.05-3.49-7.7-3.49a140.38,140.38,0,0,1,4.62-19.18A47,47,0,0,1,292.13,74c.55-.27,1.08-.52,1.55-.73s1-.44,1.38-.58a11.46,11.46,0,0,1,2.4-.5c-.29,1-.94,2.85-1.69,5.43a77,77,0,0,0-2.89,14.77c-.52,5.74,3.13,15.84,6.89,24.51A97.26,97.26,0,0,0,308.41,132.3Z" transform="translate(-5.42 -5.37)"/>
            <path class="cls-11" d="M309.27,132.3c14.9-5.88,24.79-21.07,24.79-21.07L328,107.74l7.7-3.49a140.38,140.38,0,0,0-4.62-19.18A47,47,0,0,0,325.56,74L324,73.24c-.53-.24-1-.44-1.38-.58a11.46,11.46,0,0,0-2.4-.5c.28,1,.93,2.85,1.68,5.43a77.7,77.7,0,0,1,2.9,14.77c.51,5.74-3.13,15.84-6.9,24.51A96.44,96.44,0,0,1,309.27,132.3Z" transform="translate(-5.42 -5.37)"/>
          </g>
          <g>
            <g>
              <polygon class="cls-24" points="280.38 343.44 272.69 350.93 265.61 361.91 265.61 366.83 301.11 366.83 301.11 355.75 296.59 343.65 280.38 343.44"/>
              <rect class="cls-25" x="272" y="360.91" width="30.01" height="6.31" rx="1.04"/>
              <path class="cls-26" d="M281,352.84s-.27-.94,1-2.23c.61-.63,7.54-.79,9.34.41,1.46,1-.2,3.17-.2,3.17Z" transform="translate(-5.42 -5.37)"/>
              <path class="cls-27" d="M279.52,354.63s-.3-.93,1.07-2.22c.67-.63,8.25-.79,10.22.41,1.6,1-.21,3.17-.21,3.17Z" transform="translate(-5.42 -5.37)"/>
              <path class="cls-25" d="M278,356.59s-.3-.86,1.1-2.26c.77-.76,9-.8,11.15.34,1.78.92-.13,3.17-.13,3.17Z" transform="translate(-5.42 -5.37)"/>
              <path class="cls-28" d="M269.7,367.27h2.93s25.53-.14,25.38,0-1-8.13-1-8.13l-5.56-2.95-12.66-.69-5.28,4.4Z" transform="translate(-5.42 -5.37)"/>
              <rect class="cls-29" x="263.54" y="360.91" width="30" height="6.31" rx="1.04"/>
              <path class="cls-25" d="M282.57,357.46c.3.72-.87,1.89-2.61,2.6s-3.39.69-3.69,0,.87-1.9,2.61-2.61S282.27,356.73,282.57,357.46Z" transform="translate(-5.42 -5.37)"/>
            </g>
            <g>
              <polygon class="cls-24" points="326.55 343.44 334.24 350.93 341.32 361.91 341.32 366.83 305.82 366.83 305.82 355.75 310.34 343.65 326.55 343.44"/>
              <rect class="cls-25" x="310.35" y="366.27" width="30" height="6.31" rx="1.04" transform="translate(645.28 733.49) rotate(180)"/>
              <path class="cls-26" d="M336.81,352.84s.27-.94-1-2.23c-.61-.63-7.54-.79-9.35.41-1.46,1,.2,3.17.2,3.17Z" transform="translate(-5.42 -5.37)"/>
              <path class="cls-27" d="M338.26,354.63s.29-.93-1.08-2.22c-.67-.63-8.24-.79-10.22.41-1.6,1,.21,3.17.21,3.17Z" transform="translate(-5.42 -5.37)"/>
              <path class="cls-25" d="M339.76,356.59s.29-.86-1.1-2.26c-.77-.76-9-.8-11.16.34-1.77.92.14,3.17.14,3.17Z" transform="translate(-5.42 -5.37)"/>
              <path class="cls-28" d="M348.07,367.27h-2.92s-25.53-.14-25.39,0,1-8.13,1-8.13l5.55-2.95L339,355.5l5.29,4.4Z" transform="translate(-5.42 -5.37)"/>
              <rect class="cls-29" x="318.81" y="366.27" width="30.01" height="6.31" rx="1.04" transform="translate(662.21 733.49) rotate(180)"/>
              <path class="cls-25" d="M335.2,357.46c-.29.72.88,1.89,2.62,2.6s3.39.69,3.68,0-.87-1.9-2.61-2.61S335.5,356.73,335.2,357.46Z" transform="translate(-5.42 -5.37)"/>
            </g>
          </g>
          <g>
            <path class="cls-6" d="M308.84,132.77c-10.53-6.3-22.41-22.16-22.41-22.16l6-3.54-8.62-4.31s-.14-1.53,2.32-12.92a45.45,45.45,0,0,1,7.63-16.6c.53-.24,1-.44,1.38-.58a11.46,11.46,0,0,1,2.4-.5c-.28,1-.94,2.85-1.69,5.43A77,77,0,0,0,293,92.36c-.52,5.74,3.13,15.84,6.89,24.51A97.17,97.17,0,0,0,308.84,132.77Z" transform="translate(-5.42 -5.37)"/>
            <path class="cls-6" d="M308.84,132.77c10.52-6.3,22.4-22.16,22.4-22.16l-6-3.54,8.62-4.31s.15-1.53-2.31-12.92a45.44,45.44,0,0,0-7.64-16.6c-.53-.24-1-.44-1.37-.58a11.72,11.72,0,0,0-2.41-.5c.29,1,.94,2.85,1.69,5.43a77,77,0,0,1,2.89,14.77c.52,5.74-3.12,15.84-6.89,24.51A97.55,97.55,0,0,1,308.84,132.77Z" transform="translate(-5.42 -5.37)"/>
          </g>
          <path class="cls-11" d="M309.46,131.87V240.4c-.13-.57-.24-1.15-.32-1.76h-.61c-.08.59-.17,1.17-.3,1.71V131.91l.27.39.34.47S309.07,132.45,309.46,131.87Z" transform="translate(-5.42 -5.37)"/>
          <circle class="cls-11" cx="307.64" cy="136.02" r="1.74"/>
          <circle class="cls-11" cx="307.64" cy="148.74" r="1.74"/>
          <circle class="cls-11" cx="307.64" cy="161.46" r="1.74"/>
          <circle class="cls-11" cx="307.64" cy="174.18" r="1.74"/>
          <circle class="cls-11" cx="307.64" cy="186.9" r="1.74"/>
          <path class="cls-11" d="M314.8,205a1.75,1.75,0,1,1-1.74-1.74A1.74,1.74,0,0,1,314.8,205Z" transform="translate(-5.42 -5.37)"/>
          <path class="cls-11" d="M348,131.85l-2-.47c-.53-1.75-1.71-5-3-8.3,5.36,1.36,17.44,4.68,19.59,7.54C365.38,134.31,348,131.85,348,131.85Z" transform="translate(-5.42 -5.37)"/>
          <path class="cls-11" d="M341.88,136.65c-.21,5.12-.42,9.81-.6,13.63L302.9,139.54v-6.62Z" transform="translate(-5.42 -5.37)"/>
          <g>
            <path class="cls-30" d="M200.71,83.16s-8.72-2.8-10.88-2.67a2.14,2.14,0,0,0-2.23,2l15.27,5Z" transform="translate(-5.42 -5.37)"/>
            <path class="cls-17" d="M236.63,94.94a59.39,59.39,0,0,1-10.91,5.16l-1.78-2.2-.41-.51-1.64-.7c-.1,0-.16,0-.17,0a27.8,27.8,0,0,0-5.26-.45c-2.42.1-8.08.24-9.55-.24-1.09-.37-8.82-5.62-13.66-8.72-1.9-.78-4-1.58-5.14-1.94a1,1,0,0,0-.29-.08c-2.14-.58-2.66-2.81-1.38-3.71a2,2,0,0,1,.64-.28,5.53,5.53,0,0,1,1.95,0c.09,0,3.65.45,9.84,2.86.58.22.93.43,1,.44h0a4.15,4.15,0,0,1,0-1.45,2.1,2.1,0,0,1,2.08-1.73c2.71-.19,5.7,1.19,8.14,2.43a7.81,7.81,0,0,0,3.17-.15c1.5-.45,6.8-2.57,10.48,0,3.3,2.26,6.9,4.31,8.24,6.28l3.84,4.17Z" transform="translate(-5.42 -5.37)"/>
            <path class="cls-18" d="M236.63,94.94a59.39,59.39,0,0,1-10.91,5.16l-1.78-2.2a51.23,51.23,0,0,0,11.87-3.84Z" transform="translate(-5.42 -5.37)"/>
            <path class="cls-18" d="M223.79,88.47C219.5,85.59,216.62,86,210.37,86a32.37,32.37,0,0,1-10.52-1.5h0a4.13,4.13,0,0,1,0-1.45,5.26,5.26,0,0,0,1.07.76c1.35.7,8.51,1.08,8.51,1.08a71.19,71.19,0,0,1,8.91.49A7.45,7.45,0,0,1,223.79,88.47Z" transform="translate(-5.42 -5.37)"/>
          </g>
          <g>
            <path class="cls-31" d="M302.8,67.94c-11.62,3.2-20.6,15.39-22.06,30.47H283c1.41-13.69,9.41-24.78,19.81-27.93Z" transform="translate(-5.42 -5.37)"/>
            <path class="cls-31" d="M314.88,67.94v2.55c11.47,3.47,20,16.59,20,32.23h2.24C337.16,85.69,327.6,71.43,314.88,67.94Z" transform="translate(-5.42 -5.37)"/>
          </g>
          <g>
            <path class="cls-32" d="M329,112.35a7,7,0,1,0,8.49-4.88A6.92,6.92,0,0,0,329,112.35Z" transform="translate(-5.42 -5.37)"/>
            <rect class="cls-32" x="334.55" y="102.32" width="2.95" height="6.17" transform="translate(-2.06 -15.54) rotate(1.74)"/>
            <path class="cls-33" d="M329.86,112.58a6.1,6.1,0,1,0,7.39-4.25A6,6,0,0,0,329.86,112.58Z" transform="translate(-5.42 -5.37)"/>
            <path class="cls-34" d="M333,114a2.73,2.73,0,1,0,2.81-2.59A2.7,2.7,0,0,0,333,114Z" transform="translate(-5.42 -5.37)"/>
          </g>
          <g>
            <path class="cls-32" d="M294.4,131.15a4.23,4.23,0,0,1-3.22,1.51h-5.41v-2.24h5.41a2.05,2.05,0,0,0,1.53-.75,3.12,3.12,0,0,0,.68-2.44L290.54,107c0-.12,0-.25-.06-.37-.67-3.77-3.48-6.47-6.79-6.47h-3.12c-3.31,0-6.12,2.7-6.78,6.47a2.41,2.41,0,0,0-.07.37l-2.85,20.28a3.16,3.16,0,0,0,.68,2.44,2.05,2.05,0,0,0,1.53.75h5.4v2.24h-5.4a4.23,4.23,0,0,1-3.22-1.51,5.37,5.37,0,0,1-1.21-4.24l2.85-20.27a.11.11,0,0,1,0-.06c.73-5,4.54-8.71,9.06-8.71h3.12c4.52,0,8.33,3.67,9.06,8.71a.11.11,0,0,1,0,.06l2.85,20.27A5.33,5.33,0,0,1,294.4,131.15Z" transform="translate(-5.42 -5.37)"/>
            <path class="cls-31" d="M283.69,97.56h-3.12c-4.68,0-8.61,3.78-9.36,9a.28.28,0,0,0,.07.24.3.3,0,0,0,.23.11h2.28a.32.32,0,0,0,.3-.26c.63-3.6,3.35-6.21,6.48-6.21h3.12c3.13,0,5.85,2.61,6.48,6.21a.32.32,0,0,0,.31.26h2.27a.28.28,0,0,0,.23-.11.32.32,0,0,0,.08-.24C292.31,101.34,288.37,97.56,283.69,97.56Z" transform="translate(-5.42 -5.37)"/>
            <g>
              <path class="cls-31" d="M278.53,133.39h0a1.5,1.5,0,0,1-1.49-1.5v-.74a1.5,1.5,0,0,1,1.49-1.5h0a1.5,1.5,0,0,1,1.5,1.5v.74A1.5,1.5,0,0,1,278.53,133.39Z" transform="translate(-5.42 -5.37)"/>
              <path class="cls-31" d="M285.73,133.39h0a1.5,1.5,0,0,1-1.5-1.5v-.74a1.5,1.5,0,0,1,1.5-1.5h0a1.5,1.5,0,0,1,1.49,1.5v.74A1.5,1.5,0,0,1,285.73,133.39Z" transform="translate(-5.42 -5.37)"/>
            </g>
          </g>
          <g>
            <path class="cls-17" d="M268.72,120.94c-.22-.06-6.94-2.17-9.4-2.68l-.32-.06c-2.18-.37-2.91-2.53-1.72-3.55a2,2,0,0,1,.62-.35,8.62,8.62,0,0,1,3.69,0C265.32,115.93,268.61,120.78,268.72,120.94Z" transform="translate(-5.42 -5.37)"/>
            <path class="cls-18" d="M268.72,120.94c-.22-.06-6.94-2.17-9.4-2.68a3.77,3.77,0,0,1-1.42-4,8.62,8.62,0,0,1,3.69,0C265.32,115.93,268.61,120.78,268.72,120.94Z" transform="translate(-5.42 -5.37)"/>
            <path class="cls-17" d="M312.43,119.65l-2.4,9.23-.76-.11-10.91-1.55-2.63-.37-1.7-.55a.29.29,0,0,1-.17,0,27.33,27.33,0,0,0-5.29.06c-2.4.32-8,1-9.52.68s-15.66-8.26-18.21-9.16-3.19-3.27-.71-3.91c1.94-.49,7.49,1.24,9.77,2l1,.35h0c-.07-.25-.78-3,1.78-3.38s5.78.64,8.34,1.65a7.89,7.89,0,0,0,3.13-.46c1.46-.6,6.52-3.22,10.43-1,3.49,2,7.29,3.62,8.81,5.45l.27,0,6.95.84Z" transform="translate(-5.42 -5.37)"/>
            <path class="cls-18" d="M310.62,119.43l-1.35,9.34-10.91-1.55a27.11,27.11,0,0,1,5.31-8.63Z" transform="translate(-5.42 -5.37)"/>
            <path class="cls-18" d="M289.05,122a16.55,16.55,0,0,1-6,.14c-2.91-.57-3-.52-5.25-1.07a10.53,10.53,0,0,1-3.8-1.83s-2.24.11-4.06-3.23l1,.35h0a4.25,4.25,0,0,0,3.16,2,17.5,17.5,0,0,0,3.75,1.71c1.93.58,2.7.18,5.29,1A24.71,24.71,0,0,0,289.05,122Z" transform="translate(-5.42 -5.37)"/>
          </g>
          <path class="cls-6" d="M364.25,130.31,306.6,115.54s-5.54,9.23-4.93,19.08l57,12a6.46,6.46,0,0,0,7.79-6.72C366.2,136.57,366.5,135,364.25,130.31Z" transform="translate(-5.42 -5.37)"/>
          <g>
            <rect class="cls-11" x="274.08" y="164.54" width="16" height="1.23"/>
            <rect class="cls-11" x="316.76" y="164.54" width="16" height="1.23"/>
          </g>
          <g>
            <path class="cls-31" d="M329.66,22.09c-.59-4.52-5.43-12-13.22-13.13a35.62,35.62,0,0,0-7.81-.31,35.71,35.71,0,0,0-7.82.31c-7.79,1.13-12.63,8.61-13.22,13.13s.59,14.15.59,14.15l.89,5.85,16.77,2,0,.66,2.75-.33,2.74.33,0-.66,16.77-2,.89-5.85S330.25,26.6,329.66,22.09Z" transform="translate(-5.42 -5.37)"/>
            <g>
              <g>
                <path class="cls-30" d="M291.87,37.43s-2.18-3.62-4.59-2.8-4.43,9.94,5.15,12.33C292.43,47,294.47,41.24,291.87,37.43Z" transform="translate(-5.42 -5.37)"/>
                <path class="cls-18" d="M292.34,40.76s-1.78-4.08-3.55-3.54-.89,2.23.74,3a3.48,3.48,0,0,0,0,3.15c.89,1.46,3.48,1.85,3.48,1.85l.07-3.39Z" transform="translate(-5.42 -5.37)"/>
              </g>
              <g>
                <path class="cls-30" d="M325.38,37.43s2.18-3.62,4.59-2.8,4.44,9.94-5.15,12.33C324.82,47,322.78,41.24,325.38,37.43Z" transform="translate(-5.42 -5.37)"/>
                <path class="cls-18" d="M324.91,40.76s1.78-4.08,3.55-3.54.89,2.23-.74,3a3.48,3.48,0,0,1,0,3.15c-.88,1.46-3.47,1.85-3.47,1.85l-.08-3.39Z" transform="translate(-5.42 -5.37)"/>
              </g>
            </g>
            <path class="cls-17" d="M327.67,29.63c-.15.6-.39,1.64-.66,2.94-.87,4.1-2,10.91-1.14,15.3,1.22,6.24-1.56,18-13.13,18.26h-8.22c-11.58-.25-14.36-12-13.15-18.26,1.13-5.8-1.17-15.75-1.79-18.24v0c-.05-.62-.76-11,1.6-13.72a14.85,14.85,0,0,1,2.64-2.36c2.79-2,7-3.71,13.35-3.71h2.91a30.65,30.65,0,0,1,4.69.34c5.86.93,9.34,3.49,11.3,5.73C328.51,18.66,327.67,29.63,327.67,29.63Z" transform="translate(-5.42 -5.37)"/>
            <path class="cls-18" d="M327.67,29.63c-.15.6-.39,1.64-.66,2.94-3.85-2.42-7.18-8.64-7.18-8.64-8.41,5.23-29.75,6.57-29.75,6.57l-.5-.9c-.05-.62-.76-11,1.6-13.72a14.85,14.85,0,0,1,2.64-2.36l20.95-3.37c5.86.93,9.34,3.49,11.3,5.73C328.51,18.66,327.67,29.63,327.67,29.63Z" transform="translate(-5.42 -5.37)"/>
            <path class="cls-35" d="M312.64,42.78c0,1-1.84,1.77-4.1,1.77s-4.11-.79-4.11-1.77S306.27,41,308.54,41,312.64,41.81,312.64,42.78Z" transform="translate(-5.42 -5.37)"/>
            <g>
              <g>
                <path class="cls-31" d="M295.87,32.34c.46.21.93-.18,1.32-.41a4.56,4.56,0,0,1,3.47-.3c.53.15,1.5.85,2,.78s1.05-1.56,1-2.16a4.17,4.17,0,0,0-2.45-1.16,7.12,7.12,0,0,0-3.07-.22,6.64,6.64,0,0,0-2.47,1,1.33,1.33,0,0,0-.46,1.3A1.49,1.49,0,0,0,295.87,32.34Z" transform="translate(-5.42 -5.37)"/>
                <g>
                  <path class="cls-31" d="M300.81,37.14c0,1.45-.61,2.63-1.36,2.63s-1.37-1.18-1.37-2.63.61-2.63,1.37-2.63S300.81,35.69,300.81,37.14Z" transform="translate(-5.42 -5.37)"/>
                  <path class="cls-6" d="M299.28,36c0,.35-.16.64-.35.64s-.36-.29-.36-.64.16-.63.36-.63S299.28,35.6,299.28,36Z" transform="translate(-5.42 -5.37)"/>
                </g>
              </g>
              <g>
                <path class="cls-31" d="M321.38,32.34c-.46.21-.93-.18-1.32-.41a4.53,4.53,0,0,0-3.46-.3c-.54.15-1.51.85-2,.78s-1.05-1.56-1-2.16A4.17,4.17,0,0,1,316,29.09a7.06,7.06,0,0,1,3.06-.22,6.64,6.64,0,0,1,2.47,1,1.33,1.33,0,0,1,.46,1.3A1.47,1.47,0,0,1,321.38,32.34Z" transform="translate(-5.42 -5.37)"/>
                <g>
                  <path class="cls-31" d="M319.17,37.14c0,1.45-.61,2.63-1.36,2.63s-1.37-1.18-1.37-2.63.61-2.63,1.37-2.63S319.17,35.69,319.17,37.14Z" transform="translate(-5.42 -5.37)"/>
                  <path class="cls-6" d="M317.65,36c0,.35-.16.64-.36.64s-.35-.29-.35-.64.16-.63.35-.63S317.65,35.6,317.65,36Z" transform="translate(-5.42 -5.37)"/>
                </g>
              </g>
            </g>
            <path class="cls-36" d="M317.35,50.05a8,8,0,0,1-3.1,5.3,9.3,9.3,0,0,1-11.24,0,8,8,0,0,1-3.1-5.3Z" transform="translate(-5.42 -5.37)"/>
            <rect class="cls-6" x="296.49" y="44.68" width="13.42" height="1.75"/>
            <path class="cls-37" d="M314.25,55.35a9.3,9.3,0,0,1-11.24,0c.9-1.21,3.09-2.05,5.62-2.05S313.35,54.14,314.25,55.35Z" transform="translate(-5.42 -5.37)"/>
            <g>
              <path class="cls-31" d="M291.57,26s1.41,11.84.67,16.15l-1.19-.74S289.42,33.94,289,32s-.74-4-.74-4Z" transform="translate(-5.42 -5.37)"/>
              <path class="cls-31" d="M325.68,26s-1.4,11.84-.66,16.15l1.18-.74s1.63-7.46,2.07-9.45.74-4,.74-4Z" transform="translate(-5.42 -5.37)"/>
            </g>
            <path class="cls-31" d="M329.66,20.18C329.47,18,325.74,7.62,319.6,9.47,318,6,312.38,6.61,307,6.7c-6.5.11-13.82,2.68-17.32,7.47s-1.47,15.51-1.47,15.51c12.88-1.48,27.2-6.23,32.47-10.36,1.53,2.75,3.94,7.9,8.09,9.43C328.78,28.75,329.87,22.52,329.66,20.18Z" transform="translate(-5.42 -5.37)"/>
          </g>
        </g>
      </g>
    </g>
  </g>
</svg>
