<svg id="Calque_1" data-name="Calque 1" xmlns="http://www.w3.org/2000/svg" viewBox="0 0 1208.95 910">
  <defs>
    <style>
      .cls-1 {
        fill: #6d6d6d;
      }

      .cls-2 {
        fill: #17181e;
      }

      .cls-3 {
        fill: #f59493;
      }

      .cls-4 {
        fill: #b41939;
      }

      .cls-5 {
        fill: #4c4c4c;
      }

      .cls-6 {
        fill: #c0cae3;
      }

      .cls-7 {
        fill: #fff;
      }

      .cls-8 {
        fill: #d67474;
      }

      .cls-9 {
        fill: #9b0025;
      }

      .cls-10 {
        fill: #e6eeff;
      }

      .cls-11 {
        fill: #383838;
      }

      .cls-12 {
        fill: #c9e4ff;
      }

      .cls-13, .cls-14, .cls-16, .cls-19, .cls-20, .cls-21, .cls-23 {
        fill: none;
      }

      .cls-13 {
        stroke: #e38a78;
        stroke-width: 0.83px;
      }

      .cls-13, .cls-14, .cls-16, .cls-19, .cls-20, .cls-21 {
        stroke-linecap: round;
        stroke-linejoin: round;
      }

      .cls-14 {
        stroke: #9eb9db;
      }

      .cls-15 {
        fill: #d8e3ff;
      }

      .cls-16 {
        stroke: #fff;
        stroke-width: 1.56px;
      }

      .cls-17 {
        fill: #99b2e8;
      }

      .cls-18 {
        fill: #a3bef7;
      }

      .cls-19 {
        stroke: #070707;
      }

      .cls-19, .cls-20 {
        stroke-width: 2px;
      }

      .cls-20 {
        stroke: #050505;
      }

      .cls-21 {
        stroke: #223a7a;
        stroke-width: 2.38px;
      }

      .cls-22 {
        fill: #fbfbff;
      }

      .cls-23 {
        stroke: #b41939;
        stroke-miterlimit: 10;
      }

      .cls-24 {
        opacity: 0.28;
      }
    </style>
  </defs>
  <title>illus1</title>
  <g>
    <path class="cls-1" d="M1110.46,717.59,769.25,673.64c-11.86-1.53-20.73-12.39-19.7-24.14l33.89-387.43c0-66.81,61.34-76.58,73.2-75.06l237.18,34.45c87.35,4.29,79.92,93.11,78.89,104.86L1133.9,699A20.62,20.62,0,0,1,1110.46,717.59Z" transform="translate(-16.58 -30)"/>
    <path class="cls-2" d="M879,210.27s39.62-17,28.39-64.2S849.71,138.83,879,210.27Z" transform="translate(-16.58 -30)"/>
    <path class="cls-3" d="M792.31,340.28,712.54,508.66c-3,6.27-11.33,7.81-19.55,3.62L688,509.75c-13.22-6.75-21.34-21.51-17.83-32.43l54.76-154s21.34-56.15,61.72-29.63C807.23,307.22,792.31,340.28,792.31,340.28Z" transform="translate(-16.58 -30)"/>
    <path class="cls-4" d="M841.24,591l-100.5-13.73c-23.43-.56-15.77-220.3-15.77-248h0c0-27.75,40.07-53.42,67-62.77l64.81-13.92,95.84,32c18,5,39.87,63.1,39.87,90.84l7.85-22.53C1000.39,380.58,864.67,591.52,841.24,591Z" transform="translate(-16.58 -30)"/>
    <polygon class="cls-5" points="809 806.42 0 650.96 416.82 495.1 1208.95 619.84 1208.49 648.06 809 806.42"/>
    <path class="cls-6" d="M786.42,645.41,585.68,617.48c-13.49-2.26-33-1.86-43.29.88l-97.82,26a14.63,14.63,0,0,0-5.41,2.32l-46.06,12.24c-10.32,2.74-7.72,6.83,5.77,9.09L600.2,701.71c13.49,2.26,33,1.86,43.29-.88l134.59-37C788.41,661,786.42,645.41,786.42,645.41Z" transform="translate(-16.58 -30)"/>
    <path class="cls-7" d="M774.34,640.17,573,606.48c-13.49-2.26-33-1.86-43.29.88l-97.82,26a14.63,14.63,0,0,0-5.41,2.32l-46.06,12.24c-10.32,2.74-7.72,6.83,5.77,9.09l201.35,33.69c13.49,2.26,33,1.86,43.29-.88l149.29-40.56C790.43,646.52,787.83,642.43,774.34,640.17Z" transform="translate(-16.58 -30)"/>
    <path class="cls-3" d="M1006.92,374.62l-90,163.12c-3.41,6.07-11.79,7.09-19.74,2.4l-4.78-2.82c-12.78-7.55-20-22.79-15.79-33.47l68-159.79s3.89-54.82,59.56-16.26C1011.93,333.17,1006.92,374.62,1006.92,374.62Z" transform="translate(-16.58 -30)"/>
    <path class="cls-3" d="M714.3,508.13c-29.42,45.13-171.56,89.74-171.56,89.74l-39.16-12.79L678,457.23Z" transform="translate(-16.58 -30)"/>
    <path class="cls-3" d="M868.61,296.84l-1.47-2.66c-14.46,1.66-66.46,3.85-68.27-11.94,27-10.51,16.61-44.19,7.06-95-1.81-15.79,8.54-30.06,23-31.72l4.7-.54c14.46-1.66,44,11.13,45.82,26.92,8.6,39.26,10.38,75.34,15.64,113.36C896.91,311.06,883.07,295.19,868.61,296.84Z" transform="translate(-16.58 -30)"/>
    <path class="cls-8" d="M815.22,244.12l1,16.17A86.39,86.39,0,0,0,859.07,219l8.07-11.2Z" transform="translate(-16.58 -30)"/>
    <path class="cls-9" d="M808.18,254l-19,12.12s-10.23,33.53,6.72,48l42.52-19.62s-25.17-9.81-22.81-36.31C816,254.32,811.79,252,808.18,254Z" transform="translate(-16.58 -30)"/>
    <path class="cls-9" d="M901.88,249.37,918.69,267s-23,43.53-49,57.56l-35.47-28.86s39.59-20.09,55.82-46.44C892.27,245.58,898.88,245.8,901.88,249.37Z" transform="translate(-16.58 -30)"/>
    <path class="cls-2" d="M793.27,60.77s-68.91,3.32-54.78,60.9c13,53.13,63.16,33,63.16,33Z" transform="translate(-16.58 -30)"/>
    <path class="cls-3" d="M762.12,189.79l-1.38-67.43c-.94-37.75,25.73-46.47,60-47.33l2.85-3.62c34.23-.86,64,14.72,64.93,52.47L876,194.22C876.77,223.84,772.58,298.66,762.12,189.79Z" transform="translate(-16.58 -30)"/>
    <ellipse class="cls-2" cx="826.47" cy="167.74" rx="4.72" ry="6.61" transform="translate(-20.44 -9.69) rotate(-1.4)"/>
    <ellipse class="cls-2" cx="778.37" cy="167.28" rx="2.95" ry="6.43" transform="translate(-20.44 -10.89) rotate(-1.4)"/>
    <path class="cls-2" d="M837.52,144.83c-5-.77-13.75,0-18.69.42-5.62.53-5.77-5.27-.65-5.94,9.4-1.24,13-.6,19.68,1.86C839.53,141.77,839.58,145.14,837.52,144.83Z" transform="translate(-16.58 -30)"/>
    <path class="cls-2" d="M769.67,146c3.34-.88,9.33-.35,12.71,0,3.85.41,3.59-5.39.07-5.95-6.45-1-8.85-.31-13.24,2.29C768.12,143,768.29,146.4,769.67,146Z" transform="translate(-16.58 -30)"/>
    <path class="cls-3" d="M897,167c-2.87,11.07-10.74,17.76-17.58,14.93s-10.06-14.08-7.19-25.15S883,139,889.85,141.83,899.91,155.91,897,167Z" transform="translate(-16.58 -30)"/>
    <path class="cls-8" d="M803.62,197.9c-5.41,0-8-2.07-9.31-3.82a7.73,7.73,0,0,1-1.06-6.93c.78-2.25,2.76-13.18,3.45-17.21a1.65,1.65,0,1,1,3.25.56c-.26,1.51-2.57,14.82-3.58,17.73a4.51,4.51,0,0,0,.62,3.92c1.17,1.63,3.6,2.43,6.81,2.45h0a1.65,1.65,0,0,1,0,3.3Z" transform="translate(-16.58 -30)"/>
    <path class="cls-2" d="M912.48,150S776,166,787.23,73.36C792.67,28.46,919.84,22.13,912.48,150Z" transform="translate(-16.58 -30)"/>
    <path class="cls-7" d="M785.18,207.79l34.08.14c-4.53,14.87-14.4,15.93-21.19,15.45C788,222.67,785.18,207.79,785.18,207.79Z" transform="translate(-16.58 -30)"/>
    <path class="cls-10" d="M743.47,278s-63.15,7.76-80,190L578,518.33c26.18,16,37.29,37.38,23.51,67.61,0,0,98.07-39.39,112.76-64.66s43.49-123.85,43.49-123.85Z" transform="translate(-16.58 -30)"/>
    <path class="cls-10" d="M743.47,278s15.47-2.52,45.73-11.87c-11.31,18.09-50.84,228.08-45.17,309l-40-7.41,16.56-210.2Z" transform="translate(-16.58 -30)"/>
    <path class="cls-10" d="M921.62,267.35s-44.8,9.1-71.94,133.26c-18.79,86-15.08,188.48-15.08,188.48l142.22,21.57s39.82-194.91,36.37-255.3q-.09-1.62-.23-3.19c-3.14-37-8.55-47.61-55-67.58Z" transform="translate(-16.58 -30)"/>
    <circle class="cls-9" cx="812.89" cy="284.22" r="5.99"/>
    <circle class="cls-9" cx="806.9" cy="304.91" r="5.99"/>
    <polygon class="cls-11" points="0 650.96 5.49 909.31 808.74 910 809 806.42 0 650.96"/>
    <path class="cls-11" d="M825.32,940l370.91-.64a29.35,29.35,0,0,0,29.3-29.35V679.23L825.58,836.42Z" transform="translate(-16.58 -30)"/>
    <path class="cls-12" d="M760.73,575.2S749.63,588,757.31,602c10.44,19,19.18,37.24,38,31.48s-8.3-58.34-8.3-58.34Z" transform="translate(-16.58 -30)"/>
    <g>
      <path class="cls-3" d="M725.28,592.33l-58.67,9a11.21,11.21,0,0,0-5.19,2.22c-6.34,4.91-24.94,19.37-44.5,35.08-2.39,1.92-4,12.44,5.86,7,0,0-6.74,5.65-3.28,15.34.42,1.17.84,2.32,1.26,3.43,2.54,6.73,9.65,10,15.44,7.14C654,662.7,689,645.8,696.35,646.4c22.15,1.81,41-11.89,44.5-14.37,0,0,11.57-12.39,6.2-26l-.36-.9C743.05,595.9,734,590.49,725.28,592.33Z" transform="translate(-16.58 -30)"/>
      <line class="cls-13" x1="654.81" y1="582.05" x2="605.89" y2="615.26"/>
      <line class="cls-13" x1="652.63" y1="598.39" x2="603.71" y2="631.6"/>
      <line class="cls-13" x1="655.55" y1="611.67" x2="610.67" y2="638.38"/>
    </g>
    <path class="cls-3" d="M913.67,572.88c-39,38.64-181.24,61.66-181.24,61.66l-25.26-33.16,152.65-57.44Z" transform="translate(-16.58 -30)"/>
    <path class="cls-10" d="M972.16,296,890.74,514.58l-130,60.62s49,8.28,34.62,58.27c0,0,128.8-45.41,142.89-56.9s60.81-142.39,60.81-142.39,22.83-71.95,14.46-97.36C1013.52,336.81,1008.31,304.07,972.16,296Z" transform="translate(-16.58 -30)"/>
    <polyline class="cls-14" points="909.12 365.5 909.12 377.28 874.71 481.73 744.16 545.2"/>
    <polyline class="cls-14" points="690.59 497.55 700.15 364.94 693.37 344.35"/>
    <g>
      <path class="cls-7" d="M606,702.71l-223.41-36c-15-2.41-31.91-18-37.64-34.54L290.57,474.93c-5.73-16.59,1.82-28.18,16.79-25.77l223.41,36c15,2.41,31.91,18,37.64,34.54l54.36,157.22C628.5,693.52,620.94,705.12,606,702.71Z" transform="translate(-16.58 -30)"/>
      <path class="cls-15" d="M594.93,700.93l-223.41-36c-15-2.41-31.91-18-37.64-34.54L279.52,473.15c-5.73-16.59,1.82-28.18,16.79-25.77l223.41,36c15,2.41,31.91,18,37.64,34.54l54.36,157.22C617.45,691.74,609.9,703.34,594.93,700.93Z" transform="translate(-16.58 -30)"/>
      <path class="cls-16" d="M455.1,575.68c3.73,13.14-3,22.23-14.95,20.3s-24.73-14.15-28.46-27.29,3-22.23,14.95-20.3S451.37,562.54,455.1,575.68Z" transform="translate(-16.58 -30)"/>
    </g>
    <polygon class="cls-17" points="687.43 708.37 843.57 636.7 992.81 659.57 867.09 737.98 687.43 708.37"/>
    <path class="cls-14" d="M663.48,467.94s10.16-1.39,11.8,2.42" transform="translate(-16.58 -30)"/>
    <path class="cls-14" d="M889.36,513.54s10.16-1.39,11.8,2.42" transform="translate(-16.58 -30)"/>
    <polygon class="cls-18" points="687.43 702.67 843.57 631 992.81 653.87 867.09 732.28 687.43 702.67"/>
    <polygon class="cls-7" points="687.43 695.55 843.57 623.88 992.81 646.75 867.09 725.16 687.43 695.55"/>
    <g>
      <path class="cls-19" d="M891.87,246.6S929.63,248.95,924,278c-1.65,8.51-1.79,16.49-4.49,24.89-5.31,16.47-3.71,34-6.14,51" transform="translate(-16.58 -30)"/>
      <path class="cls-19" d="M918.69,296c-14.17,13.6-30.26,20.16-32.92,42.29" transform="translate(-16.58 -30)"/>
      <path class="cls-6" d="M904.39,359.91l-31.47,51.75c-7.22,10.95-12.16,16.68-26.24,8.52-1,2-2,4-2.95,6.09l2.16,1.31a21.64,21.64,0,0,0,29.74-7.12l37.71-62C919.53,348.26,910.46,349.92,904.39,359.91Z" transform="translate(-16.58 -30)"/>
      <rect class="cls-4" x="833.24" y="417.51" width="17.27" height="9.97" rx="1.52" ry="1.52" transform="translate(1410.89 1130.28) rotate(-155.09)"/>
      <path class="cls-6" d="M886.27,350.18l-6.68,60.19c-1,13.08-.56,20.63,15.58,22.76-.41,2.22-.85,4.43-1.39,6.63l-2.51-.28a21.64,21.64,0,0,1-19.2-23.8l8-72.13C881.39,331.7,887.56,338.55,886.27,350.18Z" transform="translate(-16.58 -30)"/>
      <rect class="cls-4" x="888.93" y="432.93" width="17.27" height="9.97" rx="1.52" ry="1.52" transform="translate(101.9 -216.92) rotate(12.72)"/>
      <rect class="cls-4" x="907.24" y="347.41" width="12.61" height="10.57" rx="1.43" ry="1.43" transform="translate(1606.95 997.14) rotate(-157.58)"/>
      <rect class="cls-4" x="878.02" y="335.35" width="12.61" height="10.57" rx="1.43" ry="1.43" transform="translate(1673.15 810.04) rotate(-169.26)"/>
    </g>
    <g>
      <g>
        <path class="cls-20" d="M754.85,383.92c.09,3.8,6.83,4.3,6.74.47h0c-.61-25.06-3.36-50.29-2.17-75.34.78-16.44,3.54-36.23,24-41.82" transform="translate(-16.58 -30)"/>
        <path class="cls-21" d="M783.43,267.23" transform="translate(-16.58 -30)"/>
      </g>
      <g>
        <circle class="cls-9" cx="762.28" cy="393.49" r="17.94" transform="translate(151.01 981.76) rotate(-73.42)"/>
        <circle class="cls-22" cx="762.37" cy="389.73" r="13.82" transform="translate(154.68 979.15) rotate(-73.42)"/>
        <circle class="cls-9" cx="762.74" cy="384.23" r="13.82" transform="translate(160.21 975.58) rotate(-73.42)"/>
      </g>
    </g>
    <path class="cls-4" d="M921,701.48l-79.26,18.14a6.35,6.35,0,0,1-2.3.1l-6.57-.93a1,1,0,0,1-.4-1.77l5.51-3.69a6.34,6.34,0,0,1,2.12-.91l79.25-18.14a3.69,3.69,0,0,1,4.42,2.78h0A3.69,3.69,0,0,1,921,701.48Z" transform="translate(-16.58 -30)"/>
    <path class="cls-23" d="M780.14,186.18h-13.4a9,9,0,0,1-8.94-8.94V175a9,9,0,0,1,8.94-8.94h13.4a9,9,0,0,1,8.94,8.94v2.22A9,9,0,0,1,780.14,186.18Z" transform="translate(-16.58 -30)"/>
    <rect class="cls-23" x="787.24" y="136.07" width="37.99" height="20.11" rx="3.43" ry="3.43"/>
    <path class="cls-23" d="M787.7,169s7.89-8.16,18.94,0" transform="translate(-16.58 -30)"/>
    <line class="cls-23" x1="863.33" y1="121.64" x2="822.52" y2="137.95"/>
    <path class="cls-10" d="M463.36,577.58c5.4,25.3-8.14,43.4-30.24,40.42s-44.38-25.91-49.78-51.21,8.14-43.4,30.24-40.42S458,552.28,463.36,577.58Z" transform="translate(-16.58 -30)"/>
    <g class="cls-24">
      <circle class="cls-7" cx="984.26" cy="6.84" r="6.84"/>
      <circle class="cls-7" cx="1056.01" cy="6.84" r="6.84"/>
      <circle class="cls-7" cx="1127.75" cy="6.84" r="6.84"/>
      <circle class="cls-7" cx="984.26" cy="59.64" r="6.84"/>
      <circle class="cls-7" cx="1056.01" cy="59.64" r="6.84"/>
      <circle class="cls-7" cx="1127.75" cy="59.64" r="6.84"/>
      <circle class="cls-7" cx="984.26" cy="112.45" r="6.84"/>
      <circle class="cls-7" cx="1056.01" cy="112.45" r="6.84"/>
      <circle class="cls-7" cx="1127.75" cy="112.45" r="6.84"/>
    </g>
    <g>
      <path class="cls-4" d="M429.41,578.59s1.62-6.85,10-5.69S450.43,584,450.88,587l.87,5.63-2.94-.41s-1.1-16.45-11.27-16.3c0,0-3.05-.62-6.68,7.06Z" transform="translate(-16.58 -30)"/>
      <polygon class="cls-2" points="378.75 528.51 382.42 529.02 386.58 555.96 382.91 555.44 378.75 528.51"/>
      <polygon class="cls-2" points="385.61 529.46 389.28 529.97 393.44 556.91 389.77 556.4 385.61 529.46"/>
      <polygon class="cls-2" points="401.03 554.85 389.27 553.22 389.77 556.4 401.28 558 401.03 554.85"/>
      <polygon class="cls-4" points="402.01 531.74 400.83 557.94 404.46 558.44 405.16 535.06 413.52 559.7 416.7 560.14 407.36 532.25 402.22 531.53 402.01 531.74"/>
      <polygon class="cls-2" points="414.61 533.38 427.1 535.11 427.62 538.54 419.05 537.35 422.19 557.67 430.76 558.87 431.29 562.29 418.81 560.56 414.61 533.38"/>
    </g>
  </g>
</svg>
