<svg xmlns="http://www.w3.org/2000/svg" viewBox="0 0 450.23 531">
  <defs>
    <style>
      .cls-1 {
        isolation: isolate;
      }

      .cls-2 {
        fill: #cad9eb;
      }

      .cls-10, .cls-2, .cls-22, .cls-6 {
        opacity: 0.4;
        mix-blend-mode: multiply;
      }

      .cls-3 {
        fill: #e1e8f2;
      }

      .cls-12, .cls-4 {
        fill: #b41939;
      }

      .cls-5, .cls-7 {
        fill: #f3f3f3;
      }

      .cls-5 {
        opacity: 0.61;
      }

      .cls-6 {
        fill: #89a8cc;
      }

      .cls-8 {
        fill: #c2d6f2;
      }

      .cls-9 {
        fill: #5b5b5b;
        opacity: 0.1;
      }

      .cls-11, .cls-22 {
        fill: #a8c4e5;
      }

      .cls-12 {
        opacity: 0.44;
      }

      .cls-13 {
        fill: #db355d;
      }

      .cls-14, .cls-16, .cls-20, .cls-26, .cls-27, .cls-44 {
        fill: none;
      }

      .cls-14 {
        stroke: #ed7798;
      }

      .cls-14, .cls-16, .cls-26, .cls-44 {
        stroke-linecap: round;
        stroke-linejoin: round;
      }

      .cls-14, .cls-16 {
        stroke-width: 2.83px;
      }

      .cls-15 {
        fill: #c62c59;
      }

      .cls-16 {
        stroke: #e04f8a;
      }

      .cls-17 {
        fill: #d9e9ff;
      }

      .cls-18 {
        fill: #17181e;
      }

      .cls-19 {
        fill: #fff;
      }

      .cls-20, .cls-26, .cls-27 {
        stroke: #fff;
      }

      .cls-20, .cls-27 {
        stroke-miterlimit: 10;
      }

      .cls-20 {
        stroke-width: 2.86px;
      }

      .cls-21 {
        fill: #e6f0ff;
      }

      .cls-23 {
        fill: #991737;
      }

      .cls-24 {
        fill: #fcfeff;
      }

      .cls-25 {
        fill: #262628;
      }

      .cls-26 {
        stroke-width: 1.55px;
      }

      .cls-27 {
        stroke-width: 2.45px;
      }

      .cls-28 {
        fill: #ff619a;
      }

      .cls-29 {
        fill: #3f3f3f;
      }

      .cls-30 {
        fill: #174082;
      }

      .cls-31 {
        fill: #152859;
      }

      .cls-32 {
        fill: #ffc2b0;
      }

      .cls-33 {
        fill: #d18b77;
      }

      .cls-34 {
        fill: #1e3980;
      }

      .cls-35 {
        fill: #890c2a;
      }

      .cls-36 {
        fill: #fbfbff;
      }

      .cls-37 {
        fill: #25469e;
      }

      .cls-38 {
        fill: #f09a82;
      }

      .cls-39 {
        fill: #97cbff;
      }

      .cls-40 {
        fill: #2c1f9c;
      }

      .cls-41 {
        fill: #45446c;
      }

      .cls-42 {
        fill: #dbedff;
      }

      .cls-43 {
        fill: #dd5273;
      }

      .cls-44 {
        stroke: #b41939;
        stroke-width: 10.41px;
      }
    </style>
  </defs>
  <title>im1</title>
  <g class="cls-1">
    <g id="Calque_1" data-name="Calque 1">
      <g>
        <path class="cls-2" d="M175.14,418.19l-.41-.22h0l-2.92-1.58-4.62-2.5h0L156.37,408c-4.38-2.37-10-1.09-12.48,2.83s-.94,9.07,3.44,11.43L157.92,428h0l2.71,1.47.41.22h0l1,.53,4.09,2.21c4.38,2.37,10,1.09,12.48-2.83h0C181.06,425.7,179.51,420.55,175.14,418.19Z" transform="translate(-38.22 -14)"/>
        <g>
          <path class="cls-3" d="M140.68,421.17,161,432.69a10.14,10.14,0,0,0,13.78-3.8h0a10.14,10.14,0,0,0-3.8-13.78l-20.28-11.52a10.14,10.14,0,0,0-13.78,3.8h0A10.14,10.14,0,0,0,140.68,421.17Z" transform="translate(-38.22 -14)"/>
          <g>
            <path class="cls-4" d="M171.4,415.37l-5.59-3.18A10.14,10.14,0,0,0,152,416h0a10.14,10.14,0,0,0,3.8,13.78l1.08.61,4.51,2.56a10.14,10.14,0,0,0,13.78-3.8h0A10.14,10.14,0,0,0,171.4,415.37Z" transform="translate(-38.22 -14)"/>
            <path class="cls-4" d="M169.87,414.5l-7.25-4.12c-4.83-2.75-9.38-.1-12.12,4.74h0c-2.75,4.83-3,9.95,1.88,12.69l3,1.7,4.51,2.56a10.14,10.14,0,0,0,13.78-3.8h0A10.14,10.14,0,0,0,169.87,414.5Z" transform="translate(-38.22 -14)"/>
          </g>
        </g>
        <path class="cls-5" d="M162.27,422.48l-21.63-11.41a2.06,2.06,0,0,1-.86-2.77h0a2.06,2.06,0,0,1,2.78-.86l21.63,11.41a2.06,2.06,0,0,1,.86,2.77h0A2.06,2.06,0,0,1,162.27,422.48Z" transform="translate(-38.22 -14)"/>
      </g>
      <g>
        <path class="cls-6" d="M130.25,406.33c-5.12,3.34-13.52,3.51-18.76.37s-5.35-8.38-.23-11.72,13.52-3.51,18.76-.37S135.37,403,130.25,406.33Z" transform="translate(-38.22 -14)"/>
        <path class="cls-3" d="M126.79,405.32c-5.12,3.34-13.52,3.51-18.76.37s-5.35-8.38-.23-11.72,13.52-3.51,18.76-.37S131.9,402,126.79,405.32Z" transform="translate(-38.22 -14)"/>
        <rect class="cls-3" x="103.98" y="394.74" width="26.54" height="5.3" transform="translate(-46.04 -11.61) rotate(-1.13)"/>
        <path class="cls-7" d="M126.7,401c-5.12,3.34-13.52,3.51-18.76.37s-5.35-8.38-.23-11.72,13.52-3.51,18.76-.37S131.82,397.65,126.7,401Z" transform="translate(-38.22 -14)"/>
        <path class="cls-3" d="M124.14,398.89a14.14,14.14,0,0,1-13.72.27c-3.84-2.29-3.91-6.13-.17-8.57a14.14,14.14,0,0,1,13.72-.27C127.8,392.61,127.88,396.45,124.14,398.89Z" transform="translate(-38.22 -14)"/>
        <path class="cls-8" d="M123.51,395.41l-13.51.42a1.31,1.31,0,0,1-1.35-1.27h0a1.31,1.31,0,0,1,1.27-1.35l13.51-.42a1.31,1.31,0,0,1,1.35,1.27h0A1.31,1.31,0,0,1,123.51,395.41Z" transform="translate(-38.22 -14)"/>
      </g>
      <g>
        <path class="cls-9" d="M193,405.73l-.23-.13-49.05-28.32,49-28.28.23.13L242,377.45Zm-47.45-28.45L193,404.67l47.14-27.22-47.45-27.39Z" transform="translate(-38.22 -14)"/>
        <path class="cls-9" d="M241.39,433.65l-.23-.13L192.11,405.2l49-28.28.23.13,49.05,28.32ZM193.95,405.2l47.45,27.39,47.14-27.22L241.09,378Z" transform="translate(-38.22 -14)"/>
        <path class="cls-9" d="M145,433.48l-.23-.13L95.68,405l49-28.28.23.13,49.05,28.32ZM97.52,405,145,432.42l47.14-27.22-47.45-27.39Z" transform="translate(-38.22 -14)"/>
        <path class="cls-9" d="M193.33,461.4l-.23-.13L144,433l49-28.28.23.13,49.05,28.32ZM145.88,433l47.45,27.39,47.14-27.22L193,405.73Z" transform="translate(-38.22 -14)"/>
        <path class="cls-9" d="M241.69,489.33l-.23-.13-49.05-28.32,49-28.28.23.13L290.68,461Zm-47.45-28.45,47.45,27.39L288.84,461l-47.45-27.39Z" transform="translate(-38.22 -14)"/>
        <path class="cls-9" d="M290.06,517.25l-.23-.13L240.78,488.8l49-28.28.23.13L339,489ZM242.61,488.8l47.45,27.39L337.2,489l-47.45-27.39Z" transform="translate(-38.22 -14)"/>
        <path class="cls-9" d="M96.9,461.23l-.23-.13L47.62,432.78l49-28.28.23.13L145.88,433ZM49.46,432.78,96.9,460.17,144,433,96.6,405.56Z" transform="translate(-38.22 -14)"/>
        <path class="cls-9" d="M145.27,489.15,145,489,96,460.7l49-28.28.23.13,49.05,28.32ZM97.82,460.7l47.45,27.39,47.14-27.22L145,433.48Z" transform="translate(-38.22 -14)"/>
        <path class="cls-9" d="M193.63,517.08l-.23-.13-49.05-28.32,49-28.28.23.13,49.05,28.32Zm-47.45-28.45L193.63,516l47.14-27.22L193.33,461.4Z" transform="translate(-38.22 -14)"/>
        <path class="cls-9" d="M242,545l-.23-.13-49.05-28.32,49-28.28.23.13L291,516.72Zm-47.45-28.45L242,543.94l47.14-27.22-47.45-27.39Z" transform="translate(-38.22 -14)"/>
        <path class="cls-9" d="M144.73,544.5l-.23-.13L95.44,516l49-28.28.23.13,49.05,28.32ZM97.28,516l47.45,27.39,47.14-27.22-47.45-27.39Z" transform="translate(-38.22 -14)"/>
      </g>
      <g class="cls-10">
        <path class="cls-11" d="M97.6,542.23a16.82,16.82,0,0,1-5.54-.9c-4.68-1.62-8.11-5.32-10.19-11-5.19-14.17,14.65-30.37,26.93-38.77,14-9.6,15.68-35.13,15.69-35.39a3.1,3.1,0,1,1,6.2.36c-.07,1.17-1.86,28.85-18.39,40.15C94.48,508.9,85.05,521,87.71,528.22c1.42,3.88,3.51,6.25,6.39,7.25,4.09,1.42,10,0,16.21-3.78a166.89,166.89,0,0,0,16.27-11.42,72.41,72.41,0,0,1,8.65-6.1c8.87-5,14.39-8.76,19.26-12.06,3.45-2.34,6.71-4.56,10.66-6.88l17.24-9.74a3.1,3.1,0,1,1,3.05,5.4l-17.19,9.71c-3.73,2.2-6.91,4.36-10.28,6.64-5,3.37-10.6,7.2-19.69,12.33a67.06,67.06,0,0,0-7.9,5.6A172.36,172.36,0,0,1,113.56,537C110,539.16,103.9,542.23,97.6,542.23Z" transform="translate(-38.22 -14)"/>
      </g>
      <path class="cls-12" d="M488.44,287.88c0,110.19-72,173.39-151.38,154.15C251.3,421.24,195.82,269.61,195.82,159.43S261.33-11.33,342.13,24.14,488.44,177.69,488.44,287.88Z" transform="translate(-38.22 -14)"/>
      <g>
        <path class="cls-13" d="M178,219.9s6.13-32.83-11.95-44.27-3.62-43.14-31.92-52.16-28.57-19.81-28.57-19.81-4.28,41,13.11,55.07,27.24,46.19,35.14,52.85,19.33,23.47,19.33,23.47Z" transform="translate(-38.22 -14)"/>
        <path class="cls-14" d="M166.58,206.34s-11.87-27.19-29.32-50.06c-10-13.1-29.57-37.47-31-47.29" transform="translate(-38.22 -14)"/>
        <path class="cls-15" d="M183.1,238.81S154.17,190,123.45,182s-42.07,8.89-42.07,8.89,13.46-1.73,26.56,8.55a98.62,98.62,0,0,0,32,17.19c7.69,2.41,22.92,23.17,22.92,23.17Z" transform="translate(-38.22 -14)"/>
        <path class="cls-16" d="M156.92,215.6s-26-23.06-37.52-23.95S95.62,185.27,87,188.52" transform="translate(-38.22 -14)"/>
      </g>
      <circle class="cls-17" cx="148.82" cy="482.15" r="5.11"/>
      <g>
        <g>
          <path class="cls-18" d="M342.71,453.7l66.62-40a8.89,8.89,0,0,0-.13-15.2L211.65,281l-26,82.13Z" transform="translate(-38.22 -14)"/>
          <path class="cls-4" d="M333.07,459.29,194.21,367.21c-8.68-5-15.72-18.46-15.72-30V34.1c0-11.58,7-16.9,15.72-11.89l145,83.7c8.68,5,15.72,18.46,15.72,30V437.59c0,7.62-2.85,10.8-7.64,13.56Z" transform="translate(-38.22 -14)"/>
          <path class="cls-4" d="M252.76,174.59s-74.33,173.85-74.33,162.27L166.21,30.41l18.22-9.62c2.67-1.26,6-1,9.71,1.13l145,83.7c4.24,2.45,8.09,6.91,10.92,12.18Z" transform="translate(-38.22 -14)"/>
          <path class="cls-19" d="M324.58,458.31,180,374.61c-8.68-5-15.37-18.46-15.37-30V41.5c0-11.58,6.86-16.9,15.54-11.89l144.54,83.7c8.68,5,15.29,18.46,15.29,30V446.42C340,458,333.27,463.32,324.58,458.31Z" transform="translate(-38.22 -14)"/>
          <path class="cls-18" d="M321.68,459.38l-144.62-83.7c-8.68-5-15.37-18.46-15.37-30V42.58c0-11.58,6.86-16.9,15.54-11.89l144.54,83.7c8.68,5,15.29,18.46,15.29,30V447.5C337.06,459.07,330.37,464.4,321.68,459.38Z" transform="translate(-38.22 -14)"/>
          <path class="cls-4" d="M317.67,407.59l-141-81.41a4.74,4.74,0,0,1-2.37-4.1V66.15a4.74,4.74,0,0,1,7.11-4.1l141,81.41a4.74,4.74,0,0,1,2.37,4.1V403.49A4.74,4.74,0,0,1,317.67,407.59Z" transform="translate(-38.22 -14)"/>
          <path class="cls-4" d="M274,106.55,229.32,80.73a6.86,6.86,0,0,1-2.85-5.45h0c0-2.09,1.28-3.06,2.85-2.16L274,98.94a6.86,6.86,0,0,1,2.85,5.45h0C276.89,106.48,275.6,107.45,274,106.55Z" transform="translate(-38.22 -14)"/>
          <path class="cls-20" d="M303.16,336.73" transform="translate(-38.22 -14)"/>
        </g>
        <g>
          <path class="cls-21" d="M346.91,185.86h0c-2.37,1-4.31-.26-4.31-2.82V165.79a7.67,7.67,0,0,1,4.31-6.49h0c2.37-1,4.31.26,4.31,2.82v17.26A7.67,7.67,0,0,1,346.91,185.86Z" transform="translate(-38.22 -14)"/>
          <path class="cls-18" d="M348.76,186.09h0c-2.37,1-4.31-.26-4.31-2.82V166a7.67,7.67,0,0,1,4.31-6.49h0c2.37-1,4.31.26,4.31,2.82V179.6A7.67,7.67,0,0,1,348.76,186.09Z" transform="translate(-38.22 -14)"/>
          <path class="cls-21" d="M346.91,217.27h0c-2.37,1-4.31-.26-4.31-2.82V197.2a7.68,7.68,0,0,1,4.31-6.49h0c2.37-1,4.31.26,4.31,2.82v17.26A7.68,7.68,0,0,1,346.91,217.27Z" transform="translate(-38.22 -14)"/>
          <path class="cls-18" d="M348.76,217.5h0c-2.37,1-4.31-.26-4.31-2.82V197.43a7.68,7.68,0,0,1,4.31-6.49h0c2.37-1,4.31.26,4.31,2.82V211A7.67,7.67,0,0,1,348.76,217.5Z" transform="translate(-38.22 -14)"/>
        </g>
      </g>
      <g>
        <g>
          <path class="cls-22" d="M165.77,114c-19.36-9.72-36.09-35.14-37.35-56.77s13.41-31.29,32.78-21.56,35.92,34.85,37.55,56.67C200.54,116.29,185.14,123.7,165.77,114Z" transform="translate(-38.22 -14)"/>
          <path class="cls-23" d="M160.09,105.43c-18.39-9.23-34.27-33.37-35.47-53.92S137.36,21.8,155.75,31s34.11,33.1,35.66,53.82C193.11,107.63,178.48,114.67,160.09,105.43Z" transform="translate(-38.22 -14)"/>
          <path class="cls-4" d="M150.5,110.79C132.1,101.56,116.22,77.42,115,56.87s12.74-29.71,31.13-20.48,34.11,33.1,35.66,53.82C183.51,113,168.89,120,150.5,110.79Z" transform="translate(-38.22 -14)"/>
        </g>
        <g>
          <path class="cls-24" d="M124.94,59.32l0,9.27a2.55,2.55,0,0,0,1.28,2.2L165,92.89a2.55,2.55,0,0,0,3.81-2.22l0-9.27a2.55,2.55,0,0,0-1.28-2.2L128.75,57.09A2.55,2.55,0,0,0,124.94,59.32Z" transform="translate(-38.22 -14)"/>
          <path class="cls-24" d="M141.64,96.92l8.18,4.67a2.55,2.55,0,0,0,3.81-2.22l-.22-44.11a2.55,2.55,0,0,0-1.28-2.2l-8.18-4.67a2.55,2.55,0,0,0-3.81,2.22l.22,44.11A2.55,2.55,0,0,0,141.64,96.92Z" transform="translate(-38.22 -14)"/>
        </g>
      </g>
      <g>
        <path class="cls-12" d="M321.32,170.21,365.4,194.3a6.24,6.24,0,0,1,2.62,5.07V230l2.22,12.12L358.45,229.6l-37.13-20.29a6.24,6.24,0,0,1-2.62-5.07V172.42C318.7,170.42,319.88,169.42,321.32,170.21Z" transform="translate(-38.22 -14)"/>
        <path class="cls-19" d="M338.62,161.26l-46-26.56c-1.5-.87-2.73.06-2.73,2.06V167.4l-3.82,15.82L299.86,178l38.75,22.37c1.5.87,2.73-.06,2.73-2.06V166.48A6.56,6.56,0,0,0,338.62,161.26Z" transform="translate(-38.22 -14)"/>
        <g>
          <path class="cls-4" d="M308.49,166.65c0,2.29-1.62,3.21-3.61,2.06a8,8,0,0,1-3.61-6.23c0-2.29,1.62-3.21,3.61-2.06A8,8,0,0,1,308.49,166.65Z" transform="translate(-38.22 -14)"/>
          <path class="cls-4" d="M319.61,173.18c0,2.29-1.62,3.21-3.61,2.06a8,8,0,0,1-3.61-6.23c0-2.29,1.62-3.21,3.61-2.06A8,8,0,0,1,319.61,173.18Z" transform="translate(-38.22 -14)"/>
          <path class="cls-4" d="M330.73,179.71c0,2.29-1.62,3.21-3.61,2.06a8,8,0,0,1-3.61-6.23c0-2.29,1.62-3.21,3.61-2.06A8,8,0,0,1,330.73,179.71Z" transform="translate(-38.22 -14)"/>
        </g>
      </g>
      <g>
        <path class="cls-25" d="M245.89,373.37,145.75,315.55c-2.88-1.66-5.24-6.17-5.24-10v-62c0-3.84,2.36-5.63,5.24-4l100.14,57.82c2.88,1.66,5.24,6.17,5.24,10v62C251.13,373.25,248.78,375,245.89,373.37Z" transform="translate(-38.22 -14)"/>
        <g>
          <path class="cls-19" d="M185.28,301c0,12.56-8.88,17.34-19.83,10.66s-19.83-22.28-19.83-34.84,8.88-17.34,19.83-10.66S185.28,288.46,185.28,301Z" transform="translate(-38.22 -14)"/>
          <path class="cls-4" d="M172.42,305.22a2.21,2.21,0,0,0,3.35-2.38,17.56,17.56,0,0,0-1.62-4.5h0a11.1,11.1,0,0,0-1.56-1.79c-.53-.52-1.21-1.25-1.88-2l-.67-.71h0l-1.34-1.49-.6-.79a2.21,2.21,0,0,1-.14-.18c0-.1,0-.2,0-.29l-.08-1.85a2.15,2.15,0,0,0,1-1.78c.9.58,1.1-.59,1.18-1.42.06-.59.13-2.08-.57-2.67,0-.09,0-.18,0-.26a7.08,7.08,0,0,0,.19-1.56,5.25,5.25,0,0,0-.35-1.85,1.81,1.81,0,0,0-.23-.43,2.16,2.16,0,0,0-.12-.68,10.21,10.21,0,0,0-2.71-4.43,6.5,6.5,0,0,0-3.33-1.68c-.79-.14-1.83-.07-1.84,1.33a1.52,1.52,0,0,0,.1.53c-.15-.08-.26,0-.34.13a2.6,2.6,0,0,0-.28,1.46,11.65,11.65,0,0,0,.26,1.84c0,.1,0,.2.06.31-.86-.55-.68,1.25-.58,2,.13.92.39,2.3,1.2,2.86a8.24,8.24,0,0,0,.27,1.25,7.69,7.69,0,0,0,.74,1.67s0,0,0,0l.08,1.9c0,.05,0,.16,0,.22s-.14.06-.18.07l-.37.17h0l-.35-.07h0l-.08,0a5.59,5.59,0,0,0-.71-.12h0c-.3,0-.61-.05-.91-.07-.54,0-1.09-.18-1.61-.19-1.32,0-3.09,1.11-3.32,4.18a4,4,0,0,0,1.82,3.64ZM169.84,286l0,.21Z" transform="translate(-38.22 -14)"/>
          <polygon class="cls-19" points="182.94 292.85 155.11 275.88 155.11 285.26 182.94 302.23 182.94 292.85"/>
          <polygon class="cls-19" points="155.11 292.23 155.11 301.61 197.33 327.35 197.33 317.98 155.11 292.23"/>
        </g>
        <path class="cls-26" d="M191.31,304.49c0,16-11.33,22.49-25.3,14.43s-25.3-27.61-25.3-43.64S152,252.78,166,260.85,191.31,288.46,191.31,304.49Z" transform="translate(-38.22 -14)"/>
      </g>
      <g>
        <path class="cls-27" d="M294.31,295.26" transform="translate(-38.22 -14)"/>
        <path class="cls-28" d="M201.32,255.92l-.06,0Z" transform="translate(-38.22 -14)"/>
        <path class="cls-4" d="M302.59,285.39,301,232.92a16.2,16.2,0,0,0-4.51-9.91,20,20,0,0,0-4.86-5c-8.38-6-27.48-19.21-39-24.82C236.91,185.55,218,182,205.55,190a15.78,15.78,0,0,0-6.19,5.67v0a11.22,11.22,0,0,0-1.82,3.21c-5.71,12.55-2.21,26.94-3.14,44.8.82,6.7,1.9,9.43,6.92,12l.23.13a.22.22,0,0,1-.22.07L271,294.41l.47.26.84.46.08,0C283.39,300.08,303.38,295.22,302.59,285.39Z" transform="translate(-38.22 -14)"/>
        <path class="cls-29" d="M222.61,185.47c-6.29,0-12.17,1.39-17.06,4.53a15.78,15.78,0,0,0-6.19,5.67v0a11.22,11.22,0,0,0-1.82,3.21c-5.71,12.55-2.21,26.94-3.14,44.8.82,6.7,1.9,9.43,6.92,12l.23.13a.22.22,0,0,1-.22.07l11.88,6.56S232.35,185.42,222.61,185.47Z" transform="translate(-38.22 -14)"/>
        <path class="cls-29" d="M302.59,285.39,301,232.92a16.2,16.2,0,0,0-4.51-9.91,20,20,0,0,0-4.86-5c-8.38-6-8.1-6.58-19.82-11.74-10.68-4.71-32.32,70.72-32.37,70.7L271,294.41l.47.26.84.46.08,0C283.39,300.08,303.38,295.22,302.59,285.39Z" transform="translate(-38.22 -14)"/>
        <path class="cls-30" d="M261.82,203,223.61,202l6.1-20.66c12.66-.24,21.57,3.8,32.23,11Z" transform="translate(-38.22 -14)"/>
        <path class="cls-31" d="M236.36,206.3a12.23,12.23,0,0,0,5.72.46l9.73,16.49-.5.54c-1.56,1.68-4.43,1.5-5.47-.34Z" transform="translate(-38.22 -14)"/>
        <path class="cls-31" d="M245.91,208a10.56,10.56,0,0,1-4.84-1.72l-15.35,10.08.16.63a3,3,0,0,0,4.58,1.73Z" transform="translate(-38.22 -14)"/>
        <path class="cls-31" d="M240.05,220.85c0,1.18-.83,1.66-1.86,1.06a4.11,4.11,0,0,1-1.86-3.21c0-1.18.83-1.66,1.86-1.06A4.11,4.11,0,0,1,240.05,220.85Z" transform="translate(-38.22 -14)"/>
        <path class="cls-31" d="M240.05,229.27c0,1.18-.83,1.66-1.86,1.06a4.11,4.11,0,0,1-1.86-3.21c0-1.18.83-1.66,1.86-1.06A4.11,4.11,0,0,1,240.05,229.27Z" transform="translate(-38.22 -14)"/>
        <path class="cls-31" d="M240.05,237.7c0,1.18-.83,1.66-1.86,1.06a4.11,4.11,0,0,1-1.86-3.21c0-1.18.83-1.66,1.86-1.06A4.11,4.11,0,0,1,240.05,237.7Z" transform="translate(-38.22 -14)"/>
        <path class="cls-4" d="M243.81,205.66s-10.35,0-12.29-18.05l-6.89-1c-1,.76-2.94.25-3.87,6.27a27.38,27.38,0,0,0,.57,10.77l2.56,10.27a3.49,3.49,0,0,0,5.33,2Z" transform="translate(-38.22 -14)"/>
        <path class="cls-24" d="M244.08,205.71a10.56,10.56,0,0,1-4.84-1.72l-15.35,10.08.16.63a3,3,0,0,0,4.58,1.73Z" transform="translate(-38.22 -14)"/>
        <path class="cls-32" d="M238.47,201.17l-4.23-36.7,21.22,10.12,3.43,30C259.81,209.5,242.59,220.19,238.47,201.17Z" transform="translate(-38.22 -14)"/>
        <path class="cls-33" d="M237.62,195c.32.93,11-2.64,10.72-3.8,0,0-4.64,6.85-10,9Z" transform="translate(-38.22 -14)"/>
        <path class="cls-4" d="M238.67,204.87s11.61,4,23.27-12.54l9,10c.68,1.46.43,1.83-.76,3.12l-15.65,17.46c-1.81,2-5.17,1.75-6.35-.43Z" transform="translate(-38.22 -14)"/>
        <path class="cls-24" d="M238.67,204.87a26.43,26.43,0,0,0,5.41.28l10.22,17.37-.5.54c-1.56,1.68-4.43,1.5-5.47-.34Z" transform="translate(-38.22 -14)"/>
        <path class="cls-19" d="M214.13,187.17c-3.68,15.86-10.59,33.9-8.47,45.17l7.7-.89-5,14,1.49,15.15,6.31,3.52c2.32-22,6.93-51.47,16.08-81.55C224.82,182.24,222.47,183.66,214.13,187.17Z" transform="translate(-38.22 -14)"/>
        <path class="cls-19" d="M285,211.43l-22.17,39.19-11-2.15.71,17.27L244.88,280l-9-5a363.94,363.94,0,0,1,15.8-43.58c4.94-11.22,11.39-28.42,10.22-39.1C269.33,196.11,278.81,204.68,285,211.43Z" transform="translate(-38.22 -14)"/>
        <g>
          <path class="cls-34" d="M259.68,192.18c3.66,3.15,6.81,7,5.82,12.16-.77,4-2.93,7.42-3.51,11.49-1.13,8,1,15.94,1.22,23.91.07,2.35,3.72,2.31,3.66,0-.3-10.57-3.11-20.24.84-30.5,3.07-8,.93-14.11-5.44-19.59-1.78-1.53-4.37,1.05-2.58,2.59Z" transform="translate(-38.22 -14)"/>
          <path class="cls-34" d="M263.84,208c-4.79,9.06-16.53,14.59-15.93,26.36.12,2.34,3.78,2.31,3.66,0-.54-10.63,11.06-16.2,15.43-24.47,1.1-2.08-2.06-3.92-3.17-1.83Z" transform="translate(-38.22 -14)"/>
          <path class="cls-4" d="M260.48,243.62l-11.89,25.61c-2.78,5.45-4.77,8.36-11.72,5.31-.37,1-.73,2-1,3l1.07.5a10.09,10.09,0,0,0,13.41-4.84l14.25-30.69C266.9,237.43,262.78,238.67,260.48,243.62Z" transform="translate(-38.22 -14)"/>
          <rect class="cls-34" x="230.74" y="273.54" width="8.05" height="4.65" rx="2.32" ry="2.32" transform="matrix(-0.95, -0.32, 0.32, -0.95, 331.55, 598)"/>
          <path class="cls-4" d="M251.58,240l0,28.24c.23,6.11.81,9.59,8.4,9.74-.08,1.05-.16,2.1-.3,3.14h-1.18a10.09,10.09,0,0,1-10.13-10l0-33.84C248.36,231.74,251.58,234.59,251.58,240Z" transform="translate(-38.22 -14)"/>
          <rect class="cls-34" x="257.35" y="277.79" width="8.05" height="4.65" rx="2.32" ry="2.32" transform="translate(-5.74 -41.11) rotate(6.33)"/>
          <rect class="cls-34" x="261.41" y="237.33" width="5.88" height="4.93" rx="2.46" ry="2.46" transform="translate(414.01 529.25) rotate(-163.97)"/>
          <rect class="cls-34" x="247.25" y="233.26" width="5.88" height="4.93" rx="2.46" ry="2.46" transform="translate(443.6 475.71) rotate(-175.66)"/>
        </g>
        <g>
          <path class="cls-34" d="M218.63,242c1.34-13.69,1.67-27.59,3.87-41.18,1.45-8.92,4.07-19.57,14.28-21.58,2-.4,1.78-3.66-.28-3.25-9.42,1.85-13.78,9.25-16,18-3.84,15.3-3.58,31.74-5.11,47.37-.2,2.08,3,2.69,3.21.6Z" transform="translate(-38.22 -14)"/>
          <g>
            <circle class="cls-35" cx="216.18" cy="246.54" r="8.74" transform="translate(-130.37 344.11) rotate(-68.65)"/>
            <circle class="cls-36" cx="216.38" cy="244.71" r="6.73" transform="translate(-128.54 343.13) rotate(-68.65)"/>
            <circle class="cls-34" cx="216.78" cy="242.06" r="6.73" transform="translate(-125.82 341.82) rotate(-68.65)"/>
          </g>
        </g>
        <path class="cls-32" d="M239.74,195.06l-9.08.39c-10.72.61-17.86-7.66-18.47-18.38l-2-35.38a19.57,19.57,0,0,1,18.38-20.59l7-.39a19.57,19.57,0,0,1,20.59,18.38l2,35.38A19.57,19.57,0,0,1,239.74,195.06Z" transform="translate(-38.22 -14)"/>
        <path class="cls-18" d="M238.67,148.52a33.08,33.08,0,0,1-25,1.31c-8.84-3.18-15.11-13.4-8.39-20,3.64-3.55,13.42-7.89,21.27-11.29,22.26-9.64,46.34.36,47.79,26,0,0,2.89,35.09-17.46,40.75l-1.45-5.11s8.07-7.82-1.25-14.26a14.32,14.32,0,0,1-5.44-11C248.89,150.6,242.53,146.59,238.67,148.52Z" transform="translate(-38.22 -14)"/>
        <path class="cls-32" d="M260.9,175.25c-2.8,2.95-6.45,2.48-8.17-1.05a11.22,11.22,0,0,1,2-11.73c2.8-2.95,6.45-2.48,8.17,1.05A11.22,11.22,0,0,1,260.9,175.25Z" transform="translate(-38.22 -14)"/>
        <ellipse class="cls-18" cx="232.47" cy="171.28" rx="1.35" ry="2.73" transform="translate(-53.44 8.86) rotate(-5.45)"/>
        <ellipse class="cls-18" cx="217.9" cy="164.47" rx="1.35" ry="2.73" transform="translate(-56.01 12.71) rotate(-6.74)"/>
        <path class="cls-18" d="M231,164a8.81,8.81,0,0,1,6,3c1.31,1.36,3.39-.72,2.07-2.07a11.72,11.72,0,0,0-8.09-3.82,1.47,1.47,0,0,0,0,2.93Z" transform="translate(-38.22 -14)"/>
        <path class="cls-18" d="M214.62,156.38a7.67,7.67,0,0,1,5.52,2.61c1.27,1.4,3.34-.68,2.07-2.07a10.62,10.62,0,0,0-7.59-3.47c-1.89,0-1.89,2.89,0,2.93Z" transform="translate(-38.22 -14)"/>
        <path class="cls-33" d="M221.65,178a3.14,3.14,0,0,1-2.68-1.24c-.66-.91-1.37-2.77,1.32-5.06,2.35-2,2.7-6.06,2.7-6.1a.55.55,0,0,1,1.1.09c0,.18-.39,4.56-3.08,6.85-1.54,1.31-1.92,2.51-1.15,3.57,1.17,1.61,4.05.27,4.08.26a.55.55,0,1,1,.47,1A7.25,7.25,0,0,1,221.65,178Z" transform="translate(-38.22 -14)"/>
        <path class="cls-33" d="M255.81,167.93s3.26-3.61,4.53-.28-3.34,6.85-3.34,6.85,2.27-2.93.59-4.44S255.81,167.93,255.81,167.93Z" transform="translate(-38.22 -14)"/>
        <path class="cls-19" d="M218.48,179.09l10.27,4.4a1,1,0,0,1,.62,1.08c-.24,1.63-1.39,5.08-7,3.08-3.93-1.4-5-5.22-5.34-7.48A1,1,0,0,1,218.48,179.09Z" transform="translate(-38.22 -14)"/>
        <circle class="cls-37" cx="178.87" cy="227.48" r="3.74"/>
      </g>
      <g>
        <path class="cls-4" d="M46.25,281.78c5.3,7.16,14.43,21.67,23.32,23.18,12.31,2.1,22-14,30-22.58,3.61-3.86-1.71-10.27-5.37-6.35-6.53,7-15.18,13.61-25.32,11.72-6.78-1.27-12.33-5.93-16.33-11.34-3.19-4.3-9.53,1.08-6.35,5.37Z" transform="translate(-38.22 -14)"/>
        <path class="cls-22" d="M46.3,452.11c11.2,6,30.25,6.15,42.56.42s13.2-15.21,2-21.17-30.25-6.15-42.56-.42S35.1,446.15,46.3,452.11Z" transform="translate(-38.22 -14)"/>
        <path class="cls-18" d="M46.46,431.75l6.55-.82c4.38-2,6.43-3.48,8.39-2.35l.55.32c2,1.13,1.71,3.11-.55,4.42L51.77,441a6.36,6.36,0,0,1-7.09-.69s-1.08-1-.31-5.07C44.81,432.87,44.66,432.79,46.46,431.75Z" transform="translate(-38.22 -14)"/>
        <path class="cls-32" d="M54.2,432c-.52,4.53-8.82,4.53-8.82,1.08L50,328.57l27.68-7.8Z" transform="translate(-38.22 -14)"/>
        <path class="cls-18" d="M74.16,441.74,80.65,443c4.78-.55,7.19-1.34,8.7.33l.43.47c1.51,1.67.67,3.49-1.87,4L76.4,452.14a6.36,6.36,0,0,1-6.54-2.83s-.73-1.26,1.26-4.92C72.25,442.3,72.13,442.18,74.16,441.74Z" transform="translate(-38.22 -14)"/>
        <path class="cls-32" d="M79.46,444.51c-1.45,3.66-7.78,2.86-7.68-.15,3-36.23-3.86-70.44-12.64-103.73l26.58-2.87C86.76,376.72,86.42,410.1,79.46,444.51Z" transform="translate(-38.22 -14)"/>
        <path class="cls-18" d="M84.08,328.33l9.25,50.74s-23,22.77-49.25,0l3-47.64Z" transform="translate(-38.22 -14)"/>
        <path class="cls-32" d="M75.26,260.76c-2,6.89-7.1,8.83-11.44,4.33s-6.26-13.73-4.28-20.62,7.1-8.83,11.44-4.33S77.24,253.87,75.26,260.76Z" transform="translate(-38.22 -14)"/>
        <path class="cls-32" d="M82.52,258.57c-2,6.89-9.36,9.38-13.7,4.88s-6.26-13.73-4.28-20.62S71.63,234,76,238.51,84.5,251.68,82.52,258.57Z" transform="translate(-38.22 -14)"/>
        <path class="cls-32" d="M65.81,278.45l-.74-.16a4.66,4.66,0,0,1-3.52-5.55l3.14-14.06a4.66,4.66,0,0,1,5.55-3.52l.74.16a4.66,4.66,0,0,1,3.52,5.55l-1,14C72.91,277.31,68.31,279,65.81,278.45Z" transform="translate(-38.22 -14)"/>
        <path class="cls-18" d="M59.92,259.56s-.86,4.78,7.48,5.24c6.67.37,4.69-11.69,11.3-12.77,7.28-1.19,8.59-10.17,5.73-13.62s-10.88-5.25-16.68-2.69S49.76,240.13,59.92,259.56Z" transform="translate(-38.22 -14)"/>
        <circle class="cls-32" cx="75.69" cy="254.89" r="3.16" transform="translate(-228.4 243.36) rotate(-73.99)"/>
        <path class="cls-4" d="M46.91,330.89c2.35-12.91-.18-23.11,0-36.83,0-24.67-1.18-30.69,11.86-26.94l3.68,1a25.38,25.38,0,0,1,5.1,2c17.2,8.86,21.79,11.59,21,21.87.08,16.93-7.8,20.38-3.61,35.2C81.45,338.84,50.85,339.27,46.91,330.89Z" transform="translate(-38.22 -14)"/>
        <path class="cls-38" d="M74.14,265.72,73.39,264a4.74,4.74,0,0,0,3.87,1A6.08,6.08,0,0,1,74.14,265.72Z" transform="translate(-38.22 -14)"/>
        <ellipse class="cls-18" cx="22.34" cy="232.02" rx="6.01" ry="6.98"/>
        <path class="cls-18" d="M60.4,243.84a3.54,3.54,0,0,0-6.5-2.11A13.73,13.73,0,0,0,52.28,246c-2.43,10.73-20.51,9.18-11.64,28.06,0,0-8.07,12.39,6.93,17.61,7.68,2.67,7.5-17.09,7.5-17.09s3.06-9.09,6-16.22a13.26,13.26,0,0,0,0-10.45A8.26,8.26,0,0,1,60.4,243.84Z" transform="translate(-38.22 -14)"/>
        <path class="cls-18" d="M62.37,266.4a2.07,2.07,0,0,0-2.5,2.36,5.67,5.67,0,0,0,4.19,4.53c4.07,1.38,8.53.64,10.68.13a.59.59,0,0,0,.16-1.07C72.49,270.85,66.67,267.44,62.37,266.4Z" transform="translate(-38.22 -14)"/>
        <path class="cls-32" d="M100,280.14l3.15-2.76a4,4,0,0,0,.37-5.58h0a4,4,0,0,0-5.58-.37l-3.15,2.76a4,4,0,0,0-.37,5.58h0A4,4,0,0,0,100,280.14Z" transform="translate(-38.22 -14)"/>
        <path class="cls-4" d="M85,309l-7.89-16.45c-.73,11.74,1.21,22.26,6.61,29.6Z" transform="translate(-38.22 -14)"/>
        <path class="cls-4" d="M73.92,292.15s14,40.09,28.65,23.08c10.09-11.75,8.15-34.27,8.15-34.27l-6.44.11s-1,26.84-8.88,24.08S91,284.33,87.2,283.46,73.92,292.15,73.92,292.15Z" transform="translate(-38.22 -14)"/>
        <path class="cls-32" d="M107.15,286.92h0a3.77,3.77,0,0,1-3.12-4.3l1.4-8.76a3.77,3.77,0,0,1,4.3-3.12h0a3.77,3.77,0,0,1,3.12,4.3l-1.4,8.76A3.77,3.77,0,0,1,107.15,286.92Z" transform="translate(-38.22 -14)"/>
        <g>
          <path class="cls-39" d="M107,286.55l-10-5.07a1.6,1.6,0,0,1-.69-1.86l5.62-19.17a1.06,1.06,0,0,1,1.47-.79l10,4.9a1.6,1.6,0,0,1,.69,1.86l-5.59,19.08c-.14.48-.36.58-.79.77Z" transform="translate(-38.22 -14)"/>
          <path class="cls-39" d="M104.89,268.52s-8.85,11.83-8.63,11.1l5.52-19.78.82-.23a.94.94,0,0,1,.75,0l10,4.9a1.36,1.36,0,0,1,.64.74Z" transform="translate(-38.22 -14)"/>
          <path class="cls-40" d="M106.06,286.6l-9.93-4.9a1.59,1.59,0,0,1-.66-1.86l5.62-19.17a1,1,0,0,1,1.45-.79l9.92,4.9a1.59,1.59,0,0,1,.66,1.86l-5.62,19.17A1,1,0,0,1,106.06,286.6Z" transform="translate(-38.22 -14)"/>
          <path class="cls-41" d="M113,268.09l-.32,1.1c0,.08,0,.11.11.07h0a.31.31,0,0,0,.15-.2l.32-1.1c0-.08,0-.11-.07-.08h0A.34.34,0,0,0,113,268.09Z" transform="translate(-38.22 -14)"/>
          <path class="cls-41" d="M112.46,270l-.32,1.1c0,.08,0,.11.11.07h0a.31.31,0,0,0,.15-.2l.32-1.1c0-.08,0-.11-.07-.08h0A.34.34,0,0,0,112.46,270Z" transform="translate(-38.22 -14)"/>
          <path class="cls-42" d="M106.93,283.45l-9.77-4.81,4.91-16.91,9.71,4.78L106.73,283C106.69,283.17,107.07,283.52,106.93,283.45Z" transform="translate(-38.22 -14)"/>
          <path class="cls-19" d="M108.91,264.32l-3.07-1.51a.29.29,0,0,1-.13-.34h0a.19.19,0,0,1,.27-.14l3.07,1.51a.29.29,0,0,1,.13.34h0A.19.19,0,0,1,108.91,264.32Z" transform="translate(-38.22 -14)"/>
        </g>
        <path class="cls-32" d="M110.05,283.35l.67-2.39c-.86.13-1.24,3.78-1.34,3.07l-1.69-9.85a1.46,1.46,0,0,1,1.37-1.52h0a1.46,1.46,0,0,1,1.74,1.06l.71,4.88C111.62,279.32,110.91,283.23,110.05,283.35Z" transform="translate(-38.22 -14)"/>
      </g>
      <g>
        <path class="cls-25" d="M341.75,348.62a12,12,0,0,0-6-10.43L278,304.87c-3.16-1.82-5.75.13-5.75,4.34V347a11.17,11.17,0,0,0,5.58,9.67l53,30.61A7.26,7.26,0,0,0,341.75,381Z" transform="translate(-38.22 -14)"/>
        <polygon class="cls-19" points="275.41 332.22 275.41 342.5 295.09 354.5 295.09 344.22 275.41 332.22"/>
        <path class="cls-4" d="M299,329.62a6,6,0,0,0-5.88,1.83c-.4.39-1.2-.08-1.59-.93-1.31-2.86-3.24-6.52-5.88-8.61-5.05-4-8.67-1-7.22,5.63,1.54,7.91,13.75,25.86,13.75,25.86l.3.17s12.2-3.86,13.75-10C307.66,338.67,304.55,330.9,299,329.62Z" transform="translate(-38.22 -14)"/>
        <path class="cls-19" d="M293.82,346.2l0,0a2.36,2.36,0,0,1-1-1.36l-2.13-8.05-1.1,2.63c-.15.37-.55.46-1,.21l-3.79-2.19a1,1,0,0,1-.47-.82h0a1,1,0,0,1,1.42-.82l2.26,1.3,1.72-4.1c.16-.37.55-.46,1-.21h0a2.38,2.38,0,0,1,1,1.37l2.18,8.24.89-1.83c.17-.34.55-.41,1-.17l4.08,2.36a1,1,0,0,1,.47.82h0a1,1,0,0,1-1.42.82l-2.58-1.49L294.79,346C294.62,346.38,294.24,346.45,293.82,346.2Zm-6-8.62h0Zm8.72,4.87h0Z" transform="translate(-38.22 -14)"/>
      </g>
      <path class="cls-22" d="M246.8,440.7l-11.39-5.81a4.7,4.7,0,0,1-1.36-1.05A47.84,47.84,0,0,0,216.17,435c-2.59,1.16-5.26,2.64-8.18,4.31l-10.64,6.42,0,0-34.24,20.84c-9.92,5.67-14.2,9.27-9.79,13.85,1.67-2.26,5.3-4.65,10.47-7.6L198,452l0,0,10.64-6.42c9.17-5.27,15.9-8.56,25.42-6.38a4.72,4.72,0,0,0,2,1.93L247.48,447a4.75,4.75,0,0,0,5.36-7.75A4.77,4.77,0,0,1,246.8,440.7Z" transform="translate(-38.22 -14)"/>
      <path class="cls-22" d="M277.7,483.05l.64-.26,7.27-4.34c9.33-8.24,4.74-16.58,2.32-22-.76,3.4,1.75,11.62-2.74,14.25l-7.54,5.8-.64.26a1.89,1.89,0,0,1-.46.39l-42.71,25.3c-10.63,6.24-24,8.13-39.82-2.82a14.25,14.25,0,0,1-10.23-.85l-13.27-8.12c-1.56,1.07-3.17,2.24-4.68,3.39l11.58,7.08,7.06,3.9a14.25,14.25,0,0,0,10.23.85c15.81,10.95,29.19,9.05,39.82,2.82l42.71-25.3A1.89,1.89,0,0,0,277.7,483.05Z" transform="translate(-38.22 -14)"/>
      <path class="cls-22" d="M164.76,487.68c-2.73-1.51-3.41-3.81-2-5.72-4.47-2.41-7.17-4.86-8.52-7.26-1.38,4.28.77,8.95,9.21,13.5-1.4,1.91-.72,4.21,2,5.72l.2.11c1.49-1.15,3-2.28,4.51-3.37Z" transform="translate(-38.22 -14)"/>
      <path class="cls-22" d="M278.56,455.37a4.74,4.74,0,0,1-3.74-.24l-11.39-5.81a4.71,4.71,0,0,1-1-.73,4.72,4.72,0,0,0-.35.58,4.77,4.77,0,0,0,2.08,6.4l11.39,5.81a4.74,4.74,0,0,0,3.74.24,16.53,16.53,0,0,1,2.84,2.78C283.67,461.63,282.9,458.81,278.56,455.37Z" transform="translate(-38.22 -14)"/>
      <path class="cls-17" d="M261.52,486.52c.41-.17,21-12.24,21-12.24,4.49-2.63,7.09-5.92,7.85-9.32,1.1-4.93-1.69-10.1-8.28-13.84l-1.6-.91a4.72,4.72,0,0,1-2.91,6c4.34,3.44,5.1,6.26,3.52,9s-5.55,5.47-10.64,8.69l-13.31,7.61S263.17,484.61,261.52,486.52Z" transform="translate(-38.22 -14)"/>
      <path class="cls-4" d="M200.52,496.74l-3.09,1.86a10.22,10.22,0,0,1-2.38,1c15.81,10.95,29.19,9.05,39.82,2.82,0,0,29.18-17.26,29.31-17.4,1.65-1.9-1.84-6.54-4.28-5.07l-23.59,13.71c-12.93,8.21-19.52,10.09-33.9,1.37A5.83,5.83,0,0,1,200.52,496.74Z" transform="translate(-38.22 -14)"/>
      <path class="cls-4" d="M168.22,484.53a58.2,58.2,0,0,1-5.48-2.57c-1.4,1.91-.72,4.21,2,5.72l5.39,3c3.18-2.29,4.51-.09,2.42,1.34l12.24,6.77a14.25,14.25,0,0,0,10.23.85,10.22,10.22,0,0,0,2.38-1l3.09-1.86a5.83,5.83,0,0,0,1.87-1.7c1.26-1.88.54-4.11-2.12-5.58l-20-11.09a14.21,14.21,0,0,0-9.82-1c1.87,1.07,4.11,2.21,6.77,3.45Z" transform="translate(-38.22 -14)"/>
      <path class="cls-17" d="M197.35,445.77,208,439.35c2.92-1.68,5.59-3.15,8.18-4.31,5.56-2.49,10.75-3.55,17.24-2.07a4.73,4.73,0,0,1,.47-5.31c-9.51-1.25-19.88.33-27,4.74L193,440.84C195.86,439,198.84,444.76,197.35,445.77Z" transform="translate(-38.22 -14)"/>
      <path class="cls-4" d="M162.74,482a58.2,58.2,0,0,0,5.48,2.57l8.94-3.68c-2.66-1.24-4.9-2.38-6.77-3.45a24.92,24.92,0,0,1-5.49-4c-4.41-4.58-.13-8.18,9.79-13.85l20.58-12.52,5.33-3.26c1.49-1-1.06-7.06-3.94-5.2L162.5,459c-6.86,4.24-11.56,9.82-8.28,15.66C155.57,477.1,158.27,479.54,162.74,482Z" transform="translate(-38.22 -14)"/>
      <path class="cls-4" d="M233.41,433a4.76,4.76,0,0,0,.63.88,4.7,4.7,0,0,0,1.36,1.05l11.39,5.81a4.8,4.8,0,0,0,6.4-2.08h0a4.77,4.77,0,0,0-2.08-6.4l-11.39-5.81a4.77,4.77,0,0,0-5.84,1.23,4.73,4.73,0,0,0-.47,5.31Z" transform="translate(-38.22 -14)"/>
      <path class="cls-4" d="M273.87,456a4.76,4.76,0,0,0,4.32-8.48L266.8,441.7a4.75,4.75,0,0,0-5.36,7.75,4.71,4.71,0,0,0,1,.73Z" transform="translate(-38.22 -14)"/>
      <path class="cls-22" d="M141.12,472.56c-7,4-18.28,4-25.29,0s-7-10.58-.08-14.6,18.28-4,25.29,0S148.08,468.54,141.12,472.56Z" transform="translate(-38.22 -14)"/>
      <path class="cls-43" d="M138.53,468.85c-7,4-18.28,4-25.29,0s-7-10.58-.08-14.6,18.28-4,25.29,0S145.5,464.83,138.53,468.85Z" transform="translate(-38.22 -14)"/>
      <path class="cls-17" d="M138.22,461.36c-7,4-18.28,4-25.29,0s-7-10.58-.08-14.6,18.28-4,25.29,0S145.18,457.34,138.22,461.36Z" transform="translate(-38.22 -14)"/>
      <path class="cls-18" d="M132.63,457.19a15,15,0,0,1-13.53,0c-3.75-2.16-3.77-5.66,0-7.81a15,15,0,0,1,13.53,0C136.34,451.55,136.36,455,132.63,457.19Z" transform="translate(-38.22 -14)"/>
      <path class="cls-44" d="M180.16,485.09,163,494.8c-9.41,5.54-14.74,10.37-30,19-6.28,3.55-11.15,9-24.82,17.46-9.06,5.58-22.05,8.82-27.14-5-4-10.83,10.9-25,25.77-35.14,15.46-10.57,17-37.77,17-37.77" transform="translate(-38.22 -14)"/>
    </g>
  </g>
</svg>
