<svg id="Calque_1" data-name="Calque 1" xmlns="http://www.w3.org/2000/svg" viewBox="0 0 354 477.13">
  <defs>
    <style>
      .cls-1 {
        fill: #edebed;
      }

      .cls-2 {
        fill: #b41939;
      }

      .cls-3 {
        fill: #991434;
      }

      .cls-4 {
        fill: #17181e;
      }

      .cls-5 {
        fill: #ffe7cf;
      }

      .cls-6 {
        fill: #6e5a64;
      }

      .cls-7 {
        fill: #fff;
      }

      .cls-8 {
        fill: #64505a;
      }

      .cls-9 {
        fill: #dbd9dc;
      }

      .cls-10 {
        fill: #151519;
      }
    </style>
  </defs>
  <title>userfemale</title>
  <path class="cls-1" d="M396.19,371,316.71,342.9H183.29L103.81,371A46.17,46.17,0,0,0,73,414.49v52a23.09,23.09,0,0,0,23.09,23.09H403.91A23.09,23.09,0,0,0,427,466.48v-52A46.17,46.17,0,0,0,396.19,371Z" transform="translate(-73 -12.43)"/>
  <rect class="cls-2" x="138.52" y="330.92" width="76.96" height="146.21"/>
  <path class="cls-3" d="M211.52,376a61.42,61.42,0,0,0,77,0V343.35h-77Z" transform="translate(-73 -12.43)"/>
  <path class="cls-4" d="M388.41,252.65c-3.81-9.64-7.59-25-7.59-47.82V143.26a130.83,130.83,0,0,0-261.65,0v61.57c0,22.87-3.78,38.19-7.59,47.82a15.25,15.25,0,0,0,9.4,20c18.32,6.2,49.25,15.52,82.84,20.72h92.35c33.58-5.2,64.52-14.52,82.84-20.72A15.25,15.25,0,0,0,388.41,252.65Z" transform="translate(-73 -12.43)"/>
  <path class="cls-5" d="M250,374.13h0A46.17,46.17,0,0,1,203.83,328V274.09h92.35V328A46.18,46.18,0,0,1,250,374.13Z" transform="translate(-73 -12.43)"/>
  <path class="cls-5" d="M203.83,302.86a114.69,114.69,0,0,0,92.35,0V274.09H203.83v28.77Z" transform="translate(-73 -12.43)"/>
  <path class="cls-5" d="M250,297.17h0a100,100,0,0,1-100-100V81.7H350V197.13A100,100,0,0,1,250,297.17Z" transform="translate(-73 -12.43)"/>
  <path class="cls-5" d="M215.15,113.54a7.18,7.18,0,0,1,4.51-1.56,7.48,7.48,0,0,1,4.5,1.5C244.89,129,286.94,154.88,350,168.72v-87H150V197.13a99.38,99.38,0,0,0,115.43,98.74,100,100,0,0,1-84.65-98.74V153.75a30.83,30.83,0,0,1,14.35-26A238.81,238.81,0,0,0,215.15,113.54Z" transform="translate(-73 -12.43)"/>
  <g>
    <path class="cls-6" d="M211.52,166.35H196.13a7.7,7.7,0,0,1,0-15.39h15.39a7.7,7.7,0,0,1,0,15.39Z" transform="translate(-73 -12.43)"/>
    <path class="cls-6" d="M303.87,166.35H288.48a7.7,7.7,0,0,1,0-15.39h15.39a7.7,7.7,0,0,1,0,15.39Z" transform="translate(-73 -12.43)"/>
  </g>
  <g>
    <path class="cls-2" d="M388.52,439.54H377V428a7.7,7.7,0,0,0-15.39,0v11.54H350a7.7,7.7,0,0,0,0,15.39h11.54v11.54a7.7,7.7,0,1,0,15.39,0V454.93h11.54a7.7,7.7,0,1,0,0-15.39Z" transform="translate(-73 -12.43)"/>
    <path class="cls-2" d="M180.74,489.56H119.17a7.7,7.7,0,0,1-7.7-7.7V451.09a7.7,7.7,0,0,1,7.7-7.7h61.57a7.7,7.7,0,0,1,7.7,7.7v30.78A7.7,7.7,0,0,1,180.74,489.56Z" transform="translate(-73 -12.43)"/>
  </g>
  <path class="cls-7" d="M150,458.78a7.69,7.69,0,0,1-7.7-7.7V428a7.7,7.7,0,0,1,15.39,0v23.09A7.69,7.69,0,0,1,150,458.78Z" transform="translate(-73 -12.43)"/>
  <g>
    <path class="cls-8" d="M203.83,197.13a7.69,7.69,0,0,1-7.7-7.7v-7.7a7.7,7.7,0,0,1,15.39,0v7.7A7.69,7.69,0,0,1,203.83,197.13Z" transform="translate(-73 -12.43)"/>
    <path class="cls-8" d="M296.17,197.13a7.69,7.69,0,0,1-7.7-7.7v-7.7a7.7,7.7,0,1,1,15.39,0v7.7A7.69,7.69,0,0,1,296.17,197.13Z" transform="translate(-73 -12.43)"/>
  </g>
  <path class="cls-7" d="M223.5,224a6.92,6.92,0,0,0-6.59,9.09c4.36,12.56,17.53,21.69,33.1,21.69s28.73-9.13,33.1-21.69A6.92,6.92,0,0,0,276.5,224Z" transform="translate(-73 -12.43)"/>
  <path class="cls-4" d="M233.37,101.15c22.45,16.75,71.6,46.67,147.46,57.5v-12c0-73.33-60-135.6-133.33-134.23a130.83,130.83,0,0,0-128.33,130.8v4.91c16.41-6.19,56.08-22.56,86.39-46.67A22.79,22.79,0,0,1,233.37,101.15Z" transform="translate(-73 -12.43)"/>
  <g>
    <path class="cls-9" d="M330.26,329.95l-34.08-16.08L250,489.56h38.48L331,397.34a15.39,15.39,0,0,0-1.17-15l-10.61-15.92,15.07-20.09A10.9,10.9,0,0,0,330.26,329.95Z" transform="translate(-73 -12.43)"/>
    <path class="cls-9" d="M169.74,329.95l34.08-16.08L250,489.56H211.52L169,397.34a15.39,15.39,0,0,1,1.17-15l10.61-15.92-15.07-20.09A10.9,10.9,0,0,1,169.74,329.95Z" transform="translate(-73 -12.43)"/>
  </g>
  <path class="cls-10" d="M380.67,137.28c-3.13-71.65-63-126.14-133.17-124.83A130.25,130.25,0,0,0,206.33,20C236.68,59.34,294.59,117.44,380.67,137.28Z" transform="translate(-73 -12.43)"/>
  <path class="cls-2" d="M180.74,474.17H119.17a7.7,7.7,0,0,1-7.7-7.7v15.39a7.7,7.7,0,0,0,7.7,7.7h61.57a7.7,7.7,0,0,0,7.7-7.7V466.48A7.7,7.7,0,0,1,180.74,474.17Z" transform="translate(-73 -12.43)"/>
</svg>
