<svg id="Calque_1" data-name="Calque 1" xmlns="http://www.w3.org/2000/svg" viewBox="0 0 423.18 478.98">
  <defs>
    <style>
      .cls-1 {
        fill: #ffe7cf;
      }

      .cls-2 {
        fill: #f4d5ba;
      }

      .cls-3, .cls-5 {
        fill: #fff;
      }

      .cls-3 {
        stroke: #000;
        stroke-linecap: round;
        stroke-linejoin: round;
        stroke-width: 15px;
      }

      .cls-4 {
        fill: #b41939;
      }

      .cls-6 {
        fill: #911230;
      }

      .cls-7 {
        fill: #e1effb;
      }

      .cls-8 {
        fill: #caddea;
      }

      .cls-9 {
        fill: #17181e;
      }

      .cls-10 {
        fill: #121316;
      }
    </style>
  </defs>
  <title>usermale</title>
  <path class="cls-1" d="M282.74,348.22l50.88-47.79-20.2-3.75c-9.75-2-16.76-13.27-16.76-23.21V229.15H202.17v44.31c0,9.94-7,21.25-16.76,23.21l-20.2,3.75,50.88,47.79A48.67,48.67,0,0,0,282.74,348.22Z" transform="translate(-37.82 -11)"/>
  <path class="cls-2" d="M273.77,229.15v67.2c0,9.94,7,21.25,16.76,23.21l17.41,5,25.67-24.11-20.2-3.75c-9.75-2-16.76-13.27-16.76-23.21V229.15Z" transform="translate(-37.82 -11)"/>
  <path class="cls-3" d="M243,450Z" transform="translate(-37.82 -11)"/>
  <path class="cls-4" d="M308.39,294.25l-59,44.08-59-44.08a12.44,12.44,0,0,0-11-1.94L80.32,322.2a29.36,29.36,0,0,0-20.46,23.16L38,473.15A14.4,14.4,0,0,0,52.23,490H446.6a14.4,14.4,0,0,0,14.19-16.82L439,345.36A29.36,29.36,0,0,0,418.5,322.2L319.43,292.3A12.44,12.44,0,0,0,308.39,294.25Z" transform="translate(-37.82 -11)"/>
  <g>
    <path class="cls-5" d="M179.4,292.3l-17,5.14L200,350.08a10.87,10.87,0,0,0,13.09,3.68l36.35-15.44h0l-59-44.08A12.43,12.43,0,0,0,179.4,292.3Z" transform="translate(-37.82 -11)"/>
    <path class="cls-5" d="M285.76,353.77a10.87,10.87,0,0,0,13.09-3.68l37.62-52.64-.09,0-17-5.12a12.44,12.44,0,0,0-11,1.94l-59,44.08h0Z" transform="translate(-37.82 -11)"/>
  </g>
  <g>
    <polygon class="cls-6" points="211.59 327.33 183 339.47 199.71 358.9 223.46 358.9 240.17 339.47 211.59 327.33"/>
    <polygon class="cls-6" points="223.46 358.89 211.59 358.89 199.71 358.89 177.78 478.98 245.39 478.98 223.46 358.89"/>
  </g>
  <path class="cls-7" d="M249.41,467.68s-66.23-176.52-70-175.38L80.32,322.2a29.36,29.36,0,0,0-20.46,23.16L38,473.15A14.4,14.4,0,0,0,52.23,490H446.6a14.4,14.4,0,0,0,14.19-16.82L439,345.36A29.36,29.36,0,0,0,418.5,322.2L319.43,292.3C315.65,291.16,249.41,467.68,249.41,467.68Z" transform="translate(-37.82 -11)"/>
  <path class="cls-8" d="M460.79,473.15,439,345.36A29.36,29.36,0,0,0,418.5,322.2L319.43,292.3c-1-.31-6.67,12.51-14.34,31.34l71.86,21.68a15,15,0,0,1,10.42,11.8L410.06,490H446.6A14.4,14.4,0,0,0,460.79,473.15Z" transform="translate(-37.82 -11)"/>
  <g>
    <path class="cls-9" d="M354.74,390.17a7.23,7.23,0,0,1-7.23-7.23v-82a51.15,51.15,0,0,0-48.78-51.19,7.23,7.23,0,1,1,.68-14.43A65.58,65.58,0,0,1,362,300.93v82A7.23,7.23,0,0,1,354.74,390.17Z" transform="translate(-37.82 -11)"/>
    <path class="cls-9" d="M144.09,336.7a7.23,7.23,0,0,1-7.23-7.23V300.93a65.62,65.62,0,0,1,62.37-65.61,7.23,7.23,0,1,1,.72,14.43,51.18,51.18,0,0,0-48.64,51.18v28.54A7.23,7.23,0,0,1,144.09,336.7Z" transform="translate(-37.82 -11)"/>
  </g>
  <circle class="cls-4" cx="316.83" cy="376.7" r="30.16"/>
  <circle class="cls-7" cx="316.83" cy="376.7" r="13.29"/>
  <path class="cls-9" d="M168,446.89h-9a7.23,7.23,0,0,1,0-14.45h9a3.92,3.92,0,0,0,3.9-4.22l-5.27-67.55a22.18,22.18,0,0,0-1.69-6.94,21.65,21.65,0,0,0-20.18-12.94H143.4a21.85,21.85,0,0,0-20.45,13.92,22.23,22.23,0,0,0-1.3,5.94l-5.26,67.55a3.91,3.91,0,0,0,3.9,4.22h9a7.23,7.23,0,1,1,0,14.45h-9A18.37,18.37,0,0,1,102,427.09l5.26-67.55a35.88,35.88,0,0,1,36.06-33.2h1.46a36.06,36.06,0,0,1,33.48,21.75A36.58,36.58,0,0,1,181,359.54l5.26,67.55A18.37,18.37,0,0,1,168,446.89Z" transform="translate(-37.82 -11)"/>
  <g>
    <path class="cls-2" d="M166,164v-27H149.55a14.2,14.2,0,0,0-14.2,14.2v11a14.2,14.2,0,0,0,14.2,14.2H166Z" transform="translate(-37.82 -11)"/>
    <path class="cls-2" d="M349.27,136.93H332.78v39.38h16.49a14.2,14.2,0,0,0,14.2-14.2v-11A14.2,14.2,0,0,0,349.27,136.93Z" transform="translate(-37.82 -11)"/>
  </g>
  <path class="cls-1" d="M310,44.85C295.81,32.6,275.82,33.4,249.41,33.1c-26.41.29-46.4-.5-60.62,11.74-18.14,15.62-28,38.81-28,62.75v69.58c0,23.94,30.09,87.43,88.59,87.43S338,201.12,338,177.18V107.6C338,83.66,328.17,60.47,310,44.85Z" transform="translate(-37.82 -11)"/>
  <path class="cls-2" d="M310,44.85c-5.65-4.86-12.21-7.67-19.72-9.3,0,0,0,.07,0,.1V177.18c0,20.44-21.93,69.69-64.74,83.67a76.39,76.39,0,0,0,23.84,3.76c58.5,0,88.59-63.5,88.59-87.43V107.6C338,83.66,328.17,60.47,310,44.85Z" transform="translate(-37.82 -11)"/>
  <path class="cls-9" d="M302.71,11H196.12a49.66,49.66,0,0,0-49.66,49.66v81.52s13.67-.31,22.46,8.39a2.91,2.91,0,0,0,4.94-2.09V81.78a22,22,0,0,1,21.95-21.95h19.94a22.67,22.67,0,0,1,14.35,5.12l2,1.6a27.41,27.41,0,0,0,34.7,0l2-1.6a22.67,22.67,0,0,1,14.35-5.12H303A22,22,0,0,1,325,81.78v66.71a2.91,2.91,0,0,0,4.94,2.09c8.79-8.7,22.46-8.39,22.46-8.39V60.66A49.66,49.66,0,0,0,302.71,11Z" transform="translate(-37.82 -11)"/>
  <path class="cls-10" d="M302.71,11H255a49.65,49.65,0,0,1,49.64,48.89A22,22,0,0,1,325,81.78v66.71a2.91,2.91,0,0,0,4.94,2.09c8.79-8.7,22.46-8.39,22.46-8.39V60.66A49.66,49.66,0,0,0,302.71,11Z" transform="translate(-37.82 -11)"/>
</svg>
